M48
; DRILL file KiCad 10.0.2 date 2026-07-23T11:11:07
; FORMAT={3:3/ absolute / metric / keep zeros}
; #@! TF.CreationDate,2026-07-23T11:11:07-06:00
; #@! TF.GenerationSoftware,Kicad,Pcbnew,10.0.2
; #@! TF.FileFunction,Plated,1,2,PTH
FMAT,2
METRIC
; #@! TA.AperFunction,Plated,PTH,ComponentDrill
T1C0.800
; #@! TA.AperFunction,Plated,PTH,ComponentDrill
T2C0.900
; #@! TA.AperFunction,Plated,PTH,ComponentDrill
T3C1.000
; #@! TA.AperFunction,Plated,PTH,ComponentDrill
T4C1.300
%
G90
G05
T1
X124500Y-098920
X124500Y-109080
T2
X096200Y-125100
X096200Y-127640
X096200Y-130180
X096200Y-132720
X096200Y-135260
X096200Y-137800
X096200Y-140340
X096200Y-142880
X112960Y-103000
X115500Y-103000
X119060Y-125100
X119060Y-127640
X119060Y-130180
X119060Y-132720
X119060Y-135260
X119060Y-137800
X119060Y-140340
X119060Y-142880
T3
X079500Y-129190
X079500Y-131730
X079500Y-134270
X079500Y-136810
X079500Y-139350
X079500Y-141890
X079500Y-144430
X079500Y-146970
X087500Y-159460
X087500Y-162000
X087500Y-164540
X091115Y-100960
X091115Y-103500
X091115Y-106040
X095500Y-159460
X095500Y-162000
X095500Y-164540
X122880Y-161500
X125420Y-161500
X127960Y-161500
X130500Y-161500
T4
X063250Y-134468
X063250Y-146468
X068250Y-134468
X068250Y-146468
M30
