%TF.GenerationSoftware,KiCad,Pcbnew,10.0.2*%
%TF.CreationDate,2026-07-23T11:03:36-06:00*%
%TF.ProjectId,Battle Bot Macondo,42617474-6c65-4204-926f-74204d61636f,rev?*%
%TF.SameCoordinates,Original*%
%TF.FileFunction,Copper,L1,Top*%
%TF.FilePolarity,Positive*%
%FSLAX46Y46*%
G04 Gerber Fmt 4.6, Leading zero omitted, Abs format (unit mm)*
G04 Created by KiCad (PCBNEW 10.0.2) date 2026-07-23 11:03:36*
%MOMM*%
%LPD*%
G01*
G04 APERTURE LIST*
G04 Aperture macros list*
%AMRoundRect*
0 Rectangle with rounded corners*
0 $1 Rounding radius*
0 $2 $3 $4 $5 $6 $7 $8 $9 X,Y pos of 4 corners*
0 Add a 4 corners polygon primitive as box body*
4,1,4,$2,$3,$4,$5,$6,$7,$8,$9,$2,$3,0*
0 Add four circle primitives for the rounded corners*
1,1,$1+$1,$2,$3*
1,1,$1+$1,$4,$5*
1,1,$1+$1,$6,$7*
1,1,$1+$1,$8,$9*
0 Add four rect primitives between the rounded corners*
20,1,$1+$1,$2,$3,$4,$5,0*
20,1,$1+$1,$4,$5,$6,$7,0*
20,1,$1+$1,$6,$7,$8,$9,0*
20,1,$1+$1,$8,$9,$2,$3,0*%
G04 Aperture macros list end*
%TA.AperFunction,ComponentPad*%
%ADD10R,2.000000X2.000000*%
%TD*%
%TA.AperFunction,ComponentPad*%
%ADD11O,2.000000X1.600000*%
%TD*%
%TA.AperFunction,ComponentPad*%
%ADD12R,1.700000X1.700000*%
%TD*%
%TA.AperFunction,ComponentPad*%
%ADD13C,1.700000*%
%TD*%
%TA.AperFunction,ComponentPad*%
%ADD14RoundRect,0.250001X-1.149999X-1.149999X1.149999X-1.149999X1.149999X1.149999X-1.149999X1.149999X0*%
%TD*%
%TA.AperFunction,ComponentPad*%
%ADD15C,2.800000*%
%TD*%
%TA.AperFunction,ComponentPad*%
%ADD16R,1.800000X1.800000*%
%TD*%
%TA.AperFunction,ComponentPad*%
%ADD17C,1.800000*%
%TD*%
%TA.AperFunction,ComponentPad*%
%ADD18C,1.600000*%
%TD*%
%TA.AperFunction,Conductor*%
%ADD19C,0.200000*%
%TD*%
G04 APERTURE END LIST*
D10*
%TO.P,ESP32C3,1,EN_1*%
%TO.N,unconnected-(ESP32C3-EN-Pad1)*%
X96200000Y-125100000D03*
D11*
%TO.P,ESP32C3,2,D3_2*%
%TO.N,in4*%
X96200000Y-127640000D03*
%TO.P,ESP32C3,3,D2_3*%
%TO.N,in3*%
X96200000Y-130180000D03*
%TO.P,ESP32C3,4,D1_4*%
%TO.N,in2*%
X96200000Y-132720000D03*
%TO.P,ESP32C3,5,D0_5*%
%TO.N,in1*%
X96200000Y-135260000D03*
%TO.P,ESP32C3,6,D4_6*%
%TO.N,s*%
X96200000Y-137800000D03*
%TO.P,ESP32C3,7,D5_7*%
X96200000Y-140340000D03*
%TO.P,ESP32C3,8,3V3_8*%
%TO.N,+3.3V*%
X96200000Y-142880000D03*
%TO.P,ESP32C3,9,VBus_9*%
X119060000Y-142880000D03*
%TO.P,ESP32C3,10,GND_10*%
%TO.N,GND*%
X119060000Y-140340000D03*
%TO.P,ESP32C3,11,D6_11*%
%TO.N,unconnected-(ESP32C3-D6-Pad11)*%
X119060000Y-137800000D03*
%TO.P,ESP32C3,12,D7_12*%
%TO.N,unconnected-(ESP32C3-D7-Pad12)*%
X119060000Y-135260000D03*
%TO.P,ESP32C3,13,D8_13*%
%TO.N,unconnected-(ESP32C3-D8-Pad13)*%
X119060000Y-132720000D03*
%TO.P,ESP32C3,14,D10_14*%
%TO.N,unconnected-(ESP32C3-D10-Pad14)*%
X119060000Y-130180000D03*
%TO.P,ESP32C3,15,RX_15*%
%TO.N,unconnected-(ESP32C3-RX-Pad15)*%
X119060000Y-127640000D03*
%TO.P,ESP32C3,16,TX_16*%
%TO.N,unconnected-(ESP32C3-TX-Pad16)*%
X119060000Y-125100000D03*
%TD*%
D12*
%TO.P,servo2,1,Pin_1_1*%
%TO.N,s*%
X87500000Y-159460000D03*
D13*
%TO.P,servo2,2,Pin_2_2*%
%TO.N,GND*%
X87500000Y-162000000D03*
%TO.P,servo2,3,Pin_3_3*%
%TO.N,+7.5V*%
X87500000Y-164540000D03*
%TD*%
D14*
%TO.P,MotorA1,1,+_1*%
%TO.N,motorA*%
X63250000Y-146467500D03*
D15*
%TO.P,MotorA1,2,-_2*%
X68250000Y-146467500D03*
%TD*%
D16*
%TO.P,D1,1,K_1*%
%TO.N,GND*%
X112960000Y-103000000D03*
D17*
%TO.P,D1,2,A_2*%
%TO.N,Net-(D1-A)*%
X115500000Y-103000000D03*
%TD*%
D12*
%TO.P,Switch1,1,A_1*%
%TO.N,unconnected-(Switch1-A-Pad1)*%
X91115000Y-100960000D03*
D13*
%TO.P,Switch1,2,B_2*%
%TO.N,+7.5V*%
X91115000Y-103500000D03*
%TO.P,Switch1,3,C_3*%
X91115000Y-106040000D03*
%TD*%
D14*
%TO.P,MotorB1,1,+_1*%
%TO.N,motorB*%
X63250000Y-134467500D03*
D15*
%TO.P,MotorB1,2,-_2*%
X68250000Y-134467500D03*
%TD*%
D18*
%TO.P,R1,1*%
%TO.N,Net-(D1-A)*%
X124500000Y-98920000D03*
%TO.P,R1,2*%
%TO.N,+7.5V*%
X124500000Y-109080000D03*
%TD*%
D12*
%TO.P,buckconverter1,1,Pin_1_1*%
%TO.N,+7.5V*%
X130500000Y-161500000D03*
D13*
%TO.P,buckconverter1,2,Pin_2_2*%
%TO.N,GND*%
X127960000Y-161500000D03*
%TO.P,buckconverter1,3,Pin_3_3*%
%TO.N,+7.5V*%
X125420000Y-161500000D03*
%TO.P,buckconverter1,4,Pin_4_4*%
%TO.N,GND*%
X122880000Y-161500000D03*
%TD*%
D12*
%TO.P,servomotor1,1,Pin_1_1*%
%TO.N,s*%
X95500000Y-159460000D03*
D13*
%TO.P,servomotor1,2,Pin_2_2*%
%TO.N,GND*%
X95500000Y-162000000D03*
%TO.P,servomotor1,3,Pin_3_3*%
%TO.N,+7.5V*%
X95500000Y-164540000D03*
%TD*%
D12*
%TO.P,PuenteH1,1,Pin_1_1*%
%TO.N,in4*%
X79500000Y-129190000D03*
D13*
%TO.P,PuenteH1,2,Pin_2_2*%
%TO.N,in3*%
X79500000Y-131730000D03*
%TO.P,PuenteH1,3,Pin_3_3*%
%TO.N,in2*%
X79500000Y-134270000D03*
%TO.P,PuenteH1,4,Pin_4_4*%
%TO.N,in1*%
X79500000Y-136810000D03*
%TO.P,PuenteH1,5,Pin_5_5*%
%TO.N,motorB*%
X79500000Y-139350000D03*
%TO.P,PuenteH1,6,Pin_6_6*%
X79500000Y-141890000D03*
%TO.P,PuenteH1,7,Pin_7_7*%
%TO.N,motorA*%
X79500000Y-144430000D03*
%TO.P,PuenteH1,8,Pin_8_8*%
X79500000Y-146970000D03*
%TD*%
%TO.N,in4*%
D19*
X94650000Y-129190000D02*
X96200000Y-127640000D01*
X79500000Y-129190000D02*
X94650000Y-129190000D01*
%TO.N,in3*%
X96200000Y-130180000D02*
X81050000Y-130180000D01*
X81050000Y-130180000D02*
X79500000Y-131730000D01*
%TO.N,in2*%
X79500000Y-134270000D02*
X81050000Y-132720000D01*
X81050000Y-132720000D02*
X96200000Y-132720000D01*
%TO.N,in1*%
X81050000Y-135260000D02*
X79500000Y-136810000D01*
X96200000Y-135260000D02*
X81050000Y-135260000D01*
%TO.N,s*%
X96160000Y-140340000D02*
X96200000Y-140340000D01*
X89500000Y-147000000D02*
X96160000Y-140340000D01*
X89500000Y-154500000D02*
X89500000Y-147000000D01*
X94460000Y-159460000D02*
X89500000Y-154500000D01*
X87500000Y-146500000D02*
X96200000Y-137800000D01*
X95500000Y-159460000D02*
X94460000Y-159460000D01*
X87500000Y-159460000D02*
X87500000Y-146500000D01*
%TO.N,+3.3V*%
X119060000Y-142880000D02*
X96200000Y-142880000D01*
%TO.N,+7.5V*%
X89000000Y-104000000D02*
X89500000Y-103500000D01*
X124500000Y-109080000D02*
X124500000Y-119730000D01*
X98655000Y-109080000D02*
X124500000Y-109080000D01*
X130500000Y-158000000D02*
X129000000Y-156500000D01*
X129000000Y-156500000D02*
X123000000Y-156500000D01*
X92000000Y-109500000D02*
X98235000Y-109500000D01*
X96540000Y-163500000D02*
X95500000Y-164540000D01*
X124500000Y-119730000D02*
X134000000Y-129230000D01*
X123000000Y-156500000D02*
X123000000Y-150000000D01*
X123000000Y-150000000D02*
X109500000Y-163500000D01*
X89000000Y-109000000D02*
X89000000Y-104000000D01*
X89500000Y-103500000D02*
X91115000Y-103500000D01*
X91115000Y-106040000D02*
X92000000Y-106925000D01*
X130500000Y-161500000D02*
X130500000Y-158000000D01*
X92000000Y-106925000D02*
X92000000Y-109500000D01*
X125420000Y-161500000D02*
X123000000Y-159080000D01*
X98235000Y-109500000D02*
X98655000Y-109080000D01*
X123000000Y-159080000D02*
X123000000Y-156500000D01*
X134000000Y-129230000D02*
X134000000Y-139000000D01*
X109500000Y-163500000D02*
X96540000Y-163500000D01*
X89080000Y-109080000D02*
X89000000Y-109000000D01*
X134000000Y-139000000D02*
X123000000Y-150000000D01*
X87500000Y-164540000D02*
X95500000Y-164540000D01*
X124500000Y-109080000D02*
X89080000Y-109080000D01*
%TO.N,motorA*%
X68250000Y-146467500D02*
X70287500Y-144430000D01*
X63250000Y-146467500D02*
X63250000Y-149250000D01*
X70287500Y-144430000D02*
X79500000Y-144430000D01*
X63250000Y-149250000D02*
X65500000Y-151500000D01*
X65500000Y-151500000D02*
X74970000Y-151500000D01*
X74970000Y-151500000D02*
X79500000Y-146970000D01*
%TO.N,Net-(D1-A)*%
X120420000Y-103000000D02*
X124500000Y-98920000D01*
X115500000Y-103000000D02*
X120420000Y-103000000D01*
%TO.N,motorB*%
X63250000Y-136750000D02*
X68390000Y-141890000D01*
X68390000Y-141890000D02*
X79500000Y-141890000D01*
X63250000Y-134467500D02*
X63250000Y-136750000D01*
X74617500Y-134467500D02*
X79500000Y-139350000D01*
X68250000Y-134467500D02*
X74617500Y-134467500D01*
%TD*%
%TA.AperFunction,Conductor*%
%TO.N,GND*%
G36*
X128891206Y-156820185D02*
G01*
X128911848Y-156836819D01*
X130163181Y-158088152D01*
X130196666Y-158149475D01*
X130199500Y-158175833D01*
X130199500Y-160325500D01*
X130179815Y-160392539D01*
X130127011Y-160438294D01*
X130075500Y-160449500D01*
X129630247Y-160449500D01*
X129571770Y-160461131D01*
X129571769Y-160461132D01*
X129505447Y-160505447D01*
X129461132Y-160571769D01*
X129461131Y-160571770D01*
X129449500Y-160630247D01*
X129449500Y-160933951D01*
X129429815Y-161000990D01*
X129377011Y-161046745D01*
X129307853Y-161056689D01*
X129244297Y-161027664D01*
X129214061Y-160985736D01*
X129213306Y-160986121D01*
X129114624Y-160792449D01*
X129075270Y-160738282D01*
X129075269Y-160738282D01*
X128442962Y-161370590D01*
X128425925Y-161307007D01*
X128360099Y-161192993D01*
X128267007Y-161099901D01*
X128152993Y-161034075D01*
X128089409Y-161017037D01*
X128721716Y-160384728D01*
X128667550Y-160345375D01*
X128478217Y-160248904D01*
X128276129Y-160183242D01*
X128066246Y-160150000D01*
X127853754Y-160150000D01*
X127643872Y-160183242D01*
X127643869Y-160183242D01*
X127441782Y-160248904D01*
X127252439Y-160345380D01*
X127198282Y-160384727D01*
X127198282Y-160384728D01*
X127830591Y-161017037D01*
X127767007Y-161034075D01*
X127652993Y-161099901D01*
X127559901Y-161192993D01*
X127494075Y-161307007D01*
X127477037Y-161370591D01*
X126844728Y-160738282D01*
X126844727Y-160738282D01*
X126805380Y-160792439D01*
X126708905Y-160981781D01*
X126651656Y-161157974D01*
X126612218Y-161215649D01*
X126547859Y-161242847D01*
X126479013Y-161230932D01*
X126427537Y-161183688D01*
X126419164Y-161167107D01*
X126350943Y-161002405D01*
X126235975Y-160830342D01*
X126089657Y-160684024D01*
X126003626Y-160626541D01*
X125917598Y-160569059D01*
X125726420Y-160489870D01*
X125726412Y-160489868D01*
X125523469Y-160449500D01*
X125523465Y-160449500D01*
X125316535Y-160449500D01*
X125316530Y-160449500D01*
X125113587Y-160489868D01*
X125113579Y-160489870D01*
X124993029Y-160539804D01*
X124923559Y-160547273D01*
X124861080Y-160515998D01*
X124857895Y-160512924D01*
X123336819Y-158991848D01*
X123303334Y-158930525D01*
X123300500Y-158904167D01*
X123300500Y-156924500D01*
X123320185Y-156857461D01*
X123372989Y-156811706D01*
X123424500Y-156800500D01*
X128824167Y-156800500D01*
X128891206Y-156820185D01*
G37*
%TD.AperFunction*%
%TA.AperFunction,Conductor*%
G36*
X138429144Y-95028986D02*
G01*
X138481278Y-95075503D01*
X138500000Y-95141021D01*
X138500000Y-168877810D01*
X138480315Y-168944849D01*
X138427511Y-168990604D01*
X138377824Y-169001797D01*
X89771070Y-169717018D01*
X89764644Y-169716946D01*
X57119398Y-168504434D01*
X57053135Y-168482274D01*
X57009371Y-168427808D01*
X57000000Y-168380519D01*
X57000000Y-161893753D01*
X86150000Y-161893753D01*
X86150000Y-162106246D01*
X86183242Y-162316127D01*
X86183242Y-162316130D01*
X86248904Y-162518217D01*
X86345375Y-162707550D01*
X86384728Y-162761716D01*
X87017037Y-162129408D01*
X87034075Y-162192993D01*
X87099901Y-162307007D01*
X87192993Y-162400099D01*
X87307007Y-162465925D01*
X87370590Y-162482962D01*
X86738282Y-163115269D01*
X86738282Y-163115270D01*
X86792449Y-163154624D01*
X86981782Y-163251095D01*
X87157973Y-163308343D01*
X87215648Y-163347780D01*
X87242847Y-163412139D01*
X87230932Y-163480985D01*
X87183688Y-163532461D01*
X87167108Y-163540835D01*
X87002403Y-163609057D01*
X86830342Y-163724024D01*
X86684024Y-163870342D01*
X86569058Y-164042403D01*
X86489870Y-164233579D01*
X86489868Y-164233587D01*
X86449500Y-164436530D01*
X86449500Y-164643469D01*
X86489868Y-164846412D01*
X86489870Y-164846420D01*
X86569058Y-165037596D01*
X86684024Y-165209657D01*
X86830342Y-165355975D01*
X86830345Y-165355977D01*
X87002402Y-165470941D01*
X87193580Y-165550130D01*
X87396530Y-165590499D01*
X87396534Y-165590500D01*
X87396535Y-165590500D01*
X87603466Y-165590500D01*
X87603467Y-165590499D01*
X87806420Y-165550130D01*
X87997598Y-165470941D01*
X88169655Y-165355977D01*
X88315977Y-165209655D01*
X88430941Y-165037598D01*
X88480875Y-164917046D01*
X88524716Y-164862644D01*
X88591010Y-164840579D01*
X88595436Y-164840500D01*
X94404564Y-164840500D01*
X94471603Y-164860185D01*
X94517358Y-164912989D01*
X94519125Y-164917047D01*
X94569058Y-165037596D01*
X94684024Y-165209657D01*
X94830342Y-165355975D01*
X94830345Y-165355977D01*
X95002402Y-165470941D01*
X95193580Y-165550130D01*
X95396530Y-165590499D01*
X95396534Y-165590500D01*
X95396535Y-165590500D01*
X95603466Y-165590500D01*
X95603467Y-165590499D01*
X95806420Y-165550130D01*
X95997598Y-165470941D01*
X96169655Y-165355977D01*
X96315977Y-165209655D01*
X96430941Y-165037598D01*
X96510130Y-164846420D01*
X96550500Y-164643465D01*
X96550500Y-164436535D01*
X96510130Y-164233580D01*
X96460194Y-164113026D01*
X96458057Y-164093150D01*
X96451072Y-164074420D01*
X96454399Y-164059123D01*
X96452726Y-164043559D01*
X96461674Y-164025682D01*
X96465924Y-164006147D01*
X96482612Y-163983854D01*
X96484001Y-163981080D01*
X96487013Y-163977956D01*
X96628153Y-163836816D01*
X96689476Y-163803334D01*
X96715833Y-163800500D01*
X109539560Y-163800500D01*
X109539562Y-163800500D01*
X109615989Y-163780021D01*
X109684511Y-163740460D01*
X109740460Y-163684511D01*
X122487819Y-150937152D01*
X122549142Y-150903667D01*
X122618834Y-150908651D01*
X122674767Y-150950523D01*
X122699184Y-151015987D01*
X122699500Y-151024833D01*
X122699500Y-156460438D01*
X122699500Y-159119562D01*
X122713152Y-159170513D01*
X122719979Y-159195990D01*
X122719980Y-159195991D01*
X122733576Y-159219540D01*
X122759540Y-159264511D01*
X122759542Y-159264513D01*
X123549480Y-160054451D01*
X123582965Y-160115774D01*
X123577981Y-160185466D01*
X123536109Y-160241399D01*
X123470645Y-160265816D01*
X123405506Y-160252618D01*
X123398217Y-160248904D01*
X123196129Y-160183242D01*
X122986246Y-160150000D01*
X122773754Y-160150000D01*
X122563872Y-160183242D01*
X122563869Y-160183242D01*
X122361782Y-160248904D01*
X122172439Y-160345380D01*
X122118282Y-160384727D01*
X122118282Y-160384728D01*
X122750591Y-161017037D01*
X122687007Y-161034075D01*
X122572993Y-161099901D01*
X122479901Y-161192993D01*
X122414075Y-161307007D01*
X122397037Y-161370591D01*
X121764728Y-160738282D01*
X121764727Y-160738282D01*
X121725380Y-160792439D01*
X121628904Y-160981782D01*
X121563242Y-161183869D01*
X121563242Y-161183872D01*
X121530000Y-161393753D01*
X121530000Y-161606246D01*
X121563242Y-161816127D01*
X121563242Y-161816130D01*
X121628904Y-162018217D01*
X121725375Y-162207550D01*
X121764728Y-162261716D01*
X122397037Y-161629408D01*
X122414075Y-161692993D01*
X122479901Y-161807007D01*
X122572993Y-161900099D01*
X122687007Y-161965925D01*
X122750590Y-161982962D01*
X122118282Y-162615269D01*
X122118282Y-162615270D01*
X122172449Y-162654624D01*
X122361782Y-162751095D01*
X122563870Y-162816757D01*
X122773754Y-162850000D01*
X122986246Y-162850000D01*
X123196127Y-162816757D01*
X123196130Y-162816757D01*
X123398217Y-162751095D01*
X123587554Y-162654622D01*
X123641716Y-162615270D01*
X123641717Y-162615270D01*
X123009408Y-161982962D01*
X123072993Y-161965925D01*
X123187007Y-161900099D01*
X123280099Y-161807007D01*
X123345925Y-161692993D01*
X123362962Y-161629408D01*
X123995270Y-162261717D01*
X123995270Y-162261716D01*
X124034622Y-162207554D01*
X124131095Y-162018217D01*
X124188343Y-161842026D01*
X124227780Y-161784351D01*
X124292139Y-161757152D01*
X124360985Y-161769066D01*
X124412461Y-161816310D01*
X124420835Y-161832891D01*
X124475939Y-161965925D01*
X124489059Y-161997598D01*
X124502836Y-162018217D01*
X124604024Y-162169657D01*
X124750342Y-162315975D01*
X124750345Y-162315977D01*
X124922402Y-162430941D01*
X125113580Y-162510130D01*
X125258052Y-162538867D01*
X125316530Y-162550499D01*
X125316534Y-162550500D01*
X125316535Y-162550500D01*
X125523466Y-162550500D01*
X125523467Y-162550499D01*
X125726420Y-162510130D01*
X125917598Y-162430941D01*
X126089655Y-162315977D01*
X126235977Y-162169655D01*
X126350941Y-161997598D01*
X126419165Y-161832889D01*
X126463004Y-161778488D01*
X126529298Y-161756423D01*
X126596998Y-161773702D01*
X126644609Y-161824839D01*
X126651656Y-161842026D01*
X126708904Y-162018216D01*
X126805375Y-162207550D01*
X126844728Y-162261716D01*
X127477037Y-161629408D01*
X127494075Y-161692993D01*
X127559901Y-161807007D01*
X127652993Y-161900099D01*
X127767007Y-161965925D01*
X127830590Y-161982962D01*
X127198282Y-162615269D01*
X127198282Y-162615270D01*
X127252449Y-162654624D01*
X127441782Y-162751095D01*
X127643870Y-162816757D01*
X127853754Y-162850000D01*
X128066246Y-162850000D01*
X128276127Y-162816757D01*
X128276130Y-162816757D01*
X128478217Y-162751095D01*
X128667554Y-162654622D01*
X128721716Y-162615270D01*
X128721717Y-162615270D01*
X128089408Y-161982962D01*
X128152993Y-161965925D01*
X128267007Y-161900099D01*
X128360099Y-161807007D01*
X128425925Y-161692993D01*
X128442962Y-161629408D01*
X129075270Y-162261717D01*
X129075270Y-162261716D01*
X129114622Y-162207554D01*
X129213306Y-162013879D01*
X129214321Y-162014396D01*
X129254779Y-161964192D01*
X129321073Y-161942127D01*
X129388772Y-161959406D01*
X129436383Y-162010542D01*
X129449500Y-162066048D01*
X129449500Y-162369752D01*
X129461131Y-162428229D01*
X129461132Y-162428230D01*
X129505447Y-162494552D01*
X129571769Y-162538867D01*
X129571770Y-162538868D01*
X129630247Y-162550499D01*
X129630250Y-162550500D01*
X129630252Y-162550500D01*
X131369750Y-162550500D01*
X131369751Y-162550499D01*
X131384568Y-162547552D01*
X131428229Y-162538868D01*
X131428229Y-162538867D01*
X131428231Y-162538867D01*
X131494552Y-162494552D01*
X131538867Y-162428231D01*
X131538867Y-162428229D01*
X131538868Y-162428229D01*
X131550499Y-162369752D01*
X131550500Y-162369750D01*
X131550500Y-160630249D01*
X131550499Y-160630247D01*
X131538868Y-160571770D01*
X131538867Y-160571769D01*
X131494552Y-160505447D01*
X131428230Y-160461132D01*
X131428229Y-160461131D01*
X131369752Y-160449500D01*
X131369748Y-160449500D01*
X130924500Y-160449500D01*
X130857461Y-160429815D01*
X130811706Y-160377011D01*
X130800500Y-160325500D01*
X130800500Y-157960439D01*
X130780020Y-157884009D01*
X130780017Y-157884004D01*
X130740464Y-157815495D01*
X130740458Y-157815487D01*
X129184512Y-156259541D01*
X129184504Y-156259535D01*
X129115995Y-156219982D01*
X129115990Y-156219979D01*
X129090513Y-156213152D01*
X129039562Y-156199500D01*
X129039560Y-156199500D01*
X123424500Y-156199500D01*
X123357461Y-156179815D01*
X123311706Y-156127011D01*
X123300500Y-156075500D01*
X123300500Y-150175833D01*
X123320185Y-150108794D01*
X123336819Y-150088152D01*
X128694471Y-144730500D01*
X134240460Y-139184511D01*
X134271304Y-139131087D01*
X134280021Y-139115989D01*
X134300500Y-139039562D01*
X134300500Y-129190438D01*
X134280021Y-129114011D01*
X134280017Y-129114004D01*
X134240464Y-129045495D01*
X134240458Y-129045487D01*
X124836819Y-119641848D01*
X124803334Y-119580525D01*
X124800500Y-119554167D01*
X124800500Y-110121315D01*
X124820185Y-110054276D01*
X124872989Y-110008521D01*
X124877002Y-110006773D01*
X124973914Y-109966632D01*
X125137782Y-109857139D01*
X125277139Y-109717782D01*
X125386632Y-109553914D01*
X125462051Y-109371835D01*
X125483399Y-109264511D01*
X125500500Y-109178543D01*
X125500500Y-108981456D01*
X125462052Y-108788170D01*
X125462051Y-108788169D01*
X125462051Y-108788165D01*
X125407100Y-108655500D01*
X125386635Y-108606092D01*
X125386628Y-108606079D01*
X125277139Y-108442218D01*
X125277136Y-108442214D01*
X125137785Y-108302863D01*
X125137781Y-108302860D01*
X124973920Y-108193371D01*
X124973907Y-108193364D01*
X124791839Y-108117950D01*
X124791829Y-108117947D01*
X124598543Y-108079500D01*
X124598541Y-108079500D01*
X124401459Y-108079500D01*
X124401457Y-108079500D01*
X124208170Y-108117947D01*
X124208160Y-108117950D01*
X124026092Y-108193364D01*
X124026079Y-108193371D01*
X123862218Y-108302860D01*
X123862214Y-108302863D01*
X123722863Y-108442214D01*
X123722860Y-108442218D01*
X123613371Y-108606079D01*
X123613364Y-108606092D01*
X123573245Y-108702952D01*
X123529405Y-108757356D01*
X123463111Y-108779421D01*
X123458684Y-108779500D01*
X92424500Y-108779500D01*
X92357461Y-108759815D01*
X92311706Y-108707011D01*
X92300500Y-108655500D01*
X92300500Y-106885439D01*
X92300500Y-106885438D01*
X92280021Y-106809011D01*
X92280017Y-106809004D01*
X92240464Y-106740495D01*
X92240458Y-106740487D01*
X92102075Y-106602104D01*
X92068590Y-106540781D01*
X92073574Y-106471089D01*
X92075163Y-106467049D01*
X92125130Y-106346420D01*
X92165500Y-106143465D01*
X92165500Y-105936535D01*
X92125130Y-105733580D01*
X92045941Y-105542402D01*
X91930977Y-105370345D01*
X91930975Y-105370342D01*
X91784657Y-105224024D01*
X91698626Y-105166541D01*
X91612598Y-105109059D01*
X91421420Y-105029870D01*
X91421412Y-105029868D01*
X91218469Y-104989500D01*
X91218465Y-104989500D01*
X91011535Y-104989500D01*
X91011530Y-104989500D01*
X90808587Y-105029868D01*
X90808579Y-105029870D01*
X90617403Y-105109058D01*
X90445342Y-105224024D01*
X90299024Y-105370342D01*
X90184058Y-105542403D01*
X90104870Y-105733579D01*
X90104868Y-105733587D01*
X90064500Y-105936530D01*
X90064500Y-106143469D01*
X90104868Y-106346412D01*
X90104870Y-106346420D01*
X90184058Y-106537596D01*
X90299024Y-106709657D01*
X90445342Y-106855975D01*
X90445345Y-106855977D01*
X90617402Y-106970941D01*
X90808580Y-107050130D01*
X91008307Y-107089858D01*
X91011530Y-107090499D01*
X91011534Y-107090500D01*
X91011535Y-107090500D01*
X91218466Y-107090500D01*
X91218467Y-107090499D01*
X91421420Y-107050130D01*
X91528048Y-107005962D01*
X91597516Y-106998494D01*
X91659996Y-107029769D01*
X91695648Y-107089858D01*
X91699500Y-107120524D01*
X91699500Y-108655500D01*
X91679815Y-108722539D01*
X91627011Y-108768294D01*
X91575500Y-108779500D01*
X89424500Y-108779500D01*
X89357461Y-108759815D01*
X89311706Y-108707011D01*
X89300500Y-108655500D01*
X89300500Y-104175833D01*
X89320185Y-104108794D01*
X89336819Y-104088152D01*
X89588152Y-103836819D01*
X89649475Y-103803334D01*
X89675833Y-103800500D01*
X90019564Y-103800500D01*
X90086603Y-103820185D01*
X90132358Y-103872989D01*
X90134121Y-103877039D01*
X90184059Y-103997598D01*
X90198941Y-104019871D01*
X90299024Y-104169657D01*
X90445342Y-104315975D01*
X90445345Y-104315977D01*
X90617402Y-104430941D01*
X90808580Y-104510130D01*
X91011530Y-104550499D01*
X91011534Y-104550500D01*
X91011535Y-104550500D01*
X91218466Y-104550500D01*
X91218467Y-104550499D01*
X91421420Y-104510130D01*
X91612598Y-104430941D01*
X91784655Y-104315977D01*
X91930977Y-104169655D01*
X92045941Y-103997598D01*
X92125130Y-103806420D01*
X92165500Y-103603465D01*
X92165500Y-103396535D01*
X92125130Y-103193580D01*
X92045941Y-103002402D01*
X91930977Y-102830345D01*
X91930975Y-102830342D01*
X91784657Y-102684024D01*
X91679588Y-102613820D01*
X91612598Y-102569059D01*
X91457379Y-102504765D01*
X91421420Y-102489870D01*
X91421412Y-102489868D01*
X91218469Y-102449500D01*
X91218465Y-102449500D01*
X91011535Y-102449500D01*
X91011530Y-102449500D01*
X90808587Y-102489868D01*
X90808579Y-102489870D01*
X90617403Y-102569058D01*
X90445342Y-102684024D01*
X90299024Y-102830342D01*
X90184058Y-103002403D01*
X90134125Y-103122953D01*
X90090284Y-103177356D01*
X90023990Y-103199421D01*
X90019564Y-103199500D01*
X89460438Y-103199500D01*
X89384010Y-103219978D01*
X89315489Y-103259540D01*
X89315486Y-103259542D01*
X88759541Y-103815487D01*
X88759535Y-103815495D01*
X88719982Y-103884004D01*
X88719979Y-103884009D01*
X88706326Y-103934962D01*
X88699500Y-103960438D01*
X88699500Y-109039562D01*
X88719979Y-109115989D01*
X88722036Y-109119552D01*
X88722039Y-109119564D01*
X88722043Y-109119563D01*
X88759540Y-109184511D01*
X88839540Y-109264511D01*
X88895489Y-109320460D01*
X88895491Y-109320461D01*
X88895495Y-109320464D01*
X88964004Y-109360017D01*
X88964011Y-109360021D01*
X89040438Y-109380500D01*
X91575500Y-109380500D01*
X91642539Y-109400185D01*
X91688294Y-109452989D01*
X91699500Y-109504500D01*
X91699500Y-109539562D01*
X91713152Y-109590513D01*
X91719979Y-109615990D01*
X91719982Y-109615995D01*
X91759535Y-109684504D01*
X91759539Y-109684509D01*
X91759540Y-109684511D01*
X91815489Y-109740460D01*
X91815491Y-109740461D01*
X91815495Y-109740464D01*
X91884004Y-109780017D01*
X91884011Y-109780021D01*
X91960438Y-109800500D01*
X91960440Y-109800500D01*
X98274560Y-109800500D01*
X98274562Y-109800500D01*
X98350989Y-109780021D01*
X98419511Y-109740460D01*
X98475460Y-109684511D01*
X98743152Y-109416819D01*
X98804475Y-109383334D01*
X98830833Y-109380500D01*
X123458684Y-109380500D01*
X123525723Y-109400185D01*
X123571478Y-109452989D01*
X123573245Y-109457048D01*
X123613364Y-109553907D01*
X123613371Y-109553920D01*
X123722860Y-109717781D01*
X123722863Y-109717785D01*
X123862217Y-109857139D01*
X124026080Y-109966628D01*
X124026086Y-109966632D01*
X124122953Y-110006755D01*
X124177355Y-110050594D01*
X124199421Y-110116888D01*
X124199500Y-110121315D01*
X124199500Y-119769562D01*
X124213152Y-119820513D01*
X124219979Y-119845990D01*
X124219982Y-119845995D01*
X124259535Y-119914504D01*
X124259541Y-119914512D01*
X133663181Y-129318152D01*
X133696666Y-129379475D01*
X133699500Y-129405833D01*
X133699500Y-138824167D01*
X133679815Y-138891206D01*
X133663181Y-138911848D01*
X109411848Y-163163181D01*
X109350525Y-163196666D01*
X109324167Y-163199500D01*
X96500438Y-163199500D01*
X96424011Y-163219979D01*
X96424009Y-163219979D01*
X96419280Y-163221247D01*
X96349430Y-163219584D01*
X96291567Y-163180422D01*
X96265128Y-163118681D01*
X95629408Y-162482962D01*
X95692993Y-162465925D01*
X95807007Y-162400099D01*
X95900099Y-162307007D01*
X95965925Y-162192993D01*
X95982962Y-162129408D01*
X96615270Y-162761717D01*
X96615270Y-162761716D01*
X96654622Y-162707554D01*
X96751095Y-162518217D01*
X96816757Y-162316130D01*
X96816757Y-162316127D01*
X96850000Y-162106246D01*
X96850000Y-161893753D01*
X96816757Y-161683872D01*
X96816757Y-161683869D01*
X96751095Y-161481782D01*
X96654624Y-161292449D01*
X96615270Y-161238282D01*
X96615269Y-161238282D01*
X95982962Y-161870590D01*
X95965925Y-161807007D01*
X95900099Y-161692993D01*
X95807007Y-161599901D01*
X95692993Y-161534075D01*
X95629409Y-161517037D01*
X96261716Y-160884728D01*
X96207550Y-160845375D01*
X96013879Y-160746694D01*
X96014396Y-160745678D01*
X95964192Y-160705221D01*
X95942127Y-160638927D01*
X95959406Y-160571228D01*
X96010542Y-160523617D01*
X96066048Y-160510500D01*
X96369750Y-160510500D01*
X96369751Y-160510499D01*
X96384568Y-160507552D01*
X96428229Y-160498868D01*
X96428229Y-160498867D01*
X96428231Y-160498867D01*
X96494552Y-160454552D01*
X96538867Y-160388231D01*
X96538867Y-160388229D01*
X96538868Y-160388229D01*
X96550499Y-160329752D01*
X96550500Y-160329750D01*
X96550500Y-158590249D01*
X96550499Y-158590247D01*
X96538868Y-158531770D01*
X96538867Y-158531769D01*
X96494552Y-158465447D01*
X96428230Y-158421132D01*
X96428229Y-158421131D01*
X96369752Y-158409500D01*
X96369748Y-158409500D01*
X94630252Y-158409500D01*
X94630247Y-158409500D01*
X94571770Y-158421131D01*
X94571769Y-158421132D01*
X94505447Y-158465447D01*
X94461132Y-158531769D01*
X94461131Y-158531770D01*
X94449500Y-158590247D01*
X94449500Y-158725167D01*
X94429815Y-158792206D01*
X94377011Y-158837961D01*
X94307853Y-158847905D01*
X94244297Y-158818880D01*
X94237819Y-158812848D01*
X89836819Y-154411848D01*
X89803334Y-154350525D01*
X89800500Y-154324167D01*
X89800500Y-147175832D01*
X89820185Y-147108793D01*
X89836814Y-147088156D01*
X93946426Y-142978543D01*
X94999499Y-142978543D01*
X95037947Y-143171829D01*
X95037950Y-143171839D01*
X95113364Y-143353907D01*
X95113371Y-143353920D01*
X95222860Y-143517781D01*
X95222863Y-143517785D01*
X95362214Y-143657136D01*
X95362218Y-143657139D01*
X95526079Y-143766628D01*
X95526092Y-143766635D01*
X95708160Y-143842049D01*
X95708165Y-143842051D01*
X95708169Y-143842051D01*
X95708170Y-143842052D01*
X95901456Y-143880500D01*
X95901459Y-143880500D01*
X96498543Y-143880500D01*
X96628582Y-143854632D01*
X96691835Y-143842051D01*
X96873914Y-143766632D01*
X97037782Y-143657139D01*
X97177139Y-143517782D01*
X97286632Y-143353914D01*
X97326755Y-143257048D01*
X97370595Y-143202644D01*
X97436889Y-143180579D01*
X97441316Y-143180500D01*
X117818684Y-143180500D01*
X117885723Y-143200185D01*
X117931478Y-143252989D01*
X117933245Y-143257048D01*
X117973364Y-143353907D01*
X117973371Y-143353920D01*
X118082860Y-143517781D01*
X118082863Y-143517785D01*
X118222214Y-143657136D01*
X118222218Y-143657139D01*
X118386079Y-143766628D01*
X118386092Y-143766635D01*
X118568160Y-143842049D01*
X118568165Y-143842051D01*
X118568169Y-143842051D01*
X118568170Y-143842052D01*
X118761456Y-143880500D01*
X118761459Y-143880500D01*
X119358543Y-143880500D01*
X119488582Y-143854632D01*
X119551835Y-143842051D01*
X119733914Y-143766632D01*
X119897782Y-143657139D01*
X120037139Y-143517782D01*
X120146632Y-143353914D01*
X120222051Y-143171835D01*
X120260500Y-142978541D01*
X120260500Y-142781459D01*
X120260500Y-142781456D01*
X120222052Y-142588170D01*
X120222051Y-142588169D01*
X120222051Y-142588165D01*
X120186755Y-142502952D01*
X120146635Y-142406092D01*
X120146628Y-142406079D01*
X120037139Y-142242218D01*
X120037136Y-142242214D01*
X119897785Y-142102863D01*
X119897781Y-142102860D01*
X119733920Y-141993371D01*
X119733907Y-141993364D01*
X119551839Y-141917950D01*
X119551829Y-141917947D01*
X119370937Y-141881965D01*
X119309026Y-141849580D01*
X119274452Y-141788864D01*
X119278192Y-141719095D01*
X119319059Y-141662423D01*
X119375731Y-141637875D01*
X119564417Y-141607990D01*
X119759031Y-141544755D01*
X119941349Y-141451859D01*
X120106894Y-141331582D01*
X120106895Y-141331582D01*
X120251582Y-141186895D01*
X120251582Y-141186894D01*
X120371859Y-141021349D01*
X120464755Y-140839029D01*
X120527990Y-140644413D01*
X120536609Y-140590000D01*
X119435278Y-140590000D01*
X119479333Y-140513694D01*
X119510000Y-140399244D01*
X119510000Y-140280756D01*
X119479333Y-140166306D01*
X119435278Y-140090000D01*
X120536609Y-140090000D01*
X120527990Y-140035586D01*
X120464755Y-139840970D01*
X120371859Y-139658650D01*
X120251582Y-139493105D01*
X120251582Y-139493104D01*
X120106895Y-139348417D01*
X119941349Y-139228140D01*
X119759031Y-139135244D01*
X119564417Y-139072009D01*
X119375731Y-139042124D01*
X119312596Y-139012194D01*
X119275665Y-138952883D01*
X119276663Y-138883020D01*
X119315273Y-138824788D01*
X119370938Y-138798034D01*
X119551835Y-138762051D01*
X119733914Y-138686632D01*
X119897782Y-138577139D01*
X120037139Y-138437782D01*
X120146632Y-138273914D01*
X120222051Y-138091835D01*
X120260500Y-137898541D01*
X120260500Y-137701459D01*
X120260500Y-137701456D01*
X120222052Y-137508170D01*
X120222051Y-137508169D01*
X120222051Y-137508165D01*
X120210242Y-137479655D01*
X120146635Y-137326092D01*
X120146628Y-137326079D01*
X120037139Y-137162218D01*
X120037136Y-137162214D01*
X119897785Y-137022863D01*
X119897781Y-137022860D01*
X119733920Y-136913371D01*
X119733907Y-136913364D01*
X119551839Y-136837950D01*
X119551829Y-136837947D01*
X119358543Y-136799500D01*
X119358541Y-136799500D01*
X118761459Y-136799500D01*
X118761457Y-136799500D01*
X118568170Y-136837947D01*
X118568160Y-136837950D01*
X118386092Y-136913364D01*
X118386079Y-136913371D01*
X118222218Y-137022860D01*
X118222214Y-137022863D01*
X118082863Y-137162214D01*
X118082860Y-137162218D01*
X117973371Y-137326079D01*
X117973364Y-137326092D01*
X117897950Y-137508160D01*
X117897947Y-137508170D01*
X117859500Y-137701456D01*
X117859500Y-137701459D01*
X117859500Y-137898541D01*
X117859500Y-137898543D01*
X117859499Y-137898543D01*
X117897947Y-138091829D01*
X117897950Y-138091839D01*
X117973364Y-138273907D01*
X117973371Y-138273920D01*
X118082860Y-138437781D01*
X118082863Y-138437785D01*
X118222214Y-138577136D01*
X118222218Y-138577139D01*
X118386079Y-138686628D01*
X118386092Y-138686635D01*
X118568160Y-138762049D01*
X118568165Y-138762051D01*
X118698090Y-138787895D01*
X118749061Y-138798034D01*
X118810972Y-138830419D01*
X118845546Y-138891134D01*
X118841807Y-138960904D01*
X118800940Y-139017576D01*
X118744269Y-139042124D01*
X118555581Y-139072010D01*
X118360968Y-139135244D01*
X118178650Y-139228140D01*
X118013105Y-139348417D01*
X118013104Y-139348417D01*
X117868417Y-139493104D01*
X117868417Y-139493105D01*
X117748140Y-139658650D01*
X117655244Y-139840970D01*
X117592009Y-140035586D01*
X117583391Y-140090000D01*
X118684722Y-140090000D01*
X118640667Y-140166306D01*
X118610000Y-140280756D01*
X118610000Y-140399244D01*
X118640667Y-140513694D01*
X118684722Y-140590000D01*
X117583391Y-140590000D01*
X117592009Y-140644413D01*
X117655244Y-140839029D01*
X117748140Y-141021349D01*
X117868417Y-141186894D01*
X117868417Y-141186895D01*
X118013104Y-141331582D01*
X118178650Y-141451859D01*
X118360968Y-141544755D01*
X118555582Y-141607990D01*
X118744268Y-141637875D01*
X118807403Y-141667804D01*
X118844334Y-141727116D01*
X118843336Y-141796978D01*
X118804726Y-141855211D01*
X118749062Y-141881965D01*
X118568170Y-141917947D01*
X118568160Y-141917950D01*
X118386092Y-141993364D01*
X118386079Y-141993371D01*
X118222218Y-142102860D01*
X118222214Y-142102863D01*
X118082863Y-142242214D01*
X118082860Y-142242218D01*
X117973371Y-142406079D01*
X117973364Y-142406092D01*
X117933245Y-142502952D01*
X117889405Y-142557356D01*
X117823111Y-142579421D01*
X117818684Y-142579500D01*
X97441316Y-142579500D01*
X97374277Y-142559815D01*
X97328522Y-142507011D01*
X97326755Y-142502952D01*
X97286635Y-142406092D01*
X97286628Y-142406079D01*
X97177139Y-142242218D01*
X97177136Y-142242214D01*
X97037785Y-142102863D01*
X97037781Y-142102860D01*
X96873920Y-141993371D01*
X96873907Y-141993364D01*
X96691839Y-141917950D01*
X96691829Y-141917947D01*
X96498543Y-141879500D01*
X96498541Y-141879500D01*
X95901459Y-141879500D01*
X95901457Y-141879500D01*
X95708170Y-141917947D01*
X95708160Y-141917950D01*
X95526092Y-141993364D01*
X95526079Y-141993371D01*
X95362218Y-142102860D01*
X95362214Y-142102863D01*
X95222863Y-142242214D01*
X95222860Y-142242218D01*
X95113371Y-142406079D01*
X95113364Y-142406092D01*
X95037950Y-142588160D01*
X95037947Y-142588170D01*
X94999500Y-142781456D01*
X94999500Y-142781459D01*
X94999500Y-142978541D01*
X94999500Y-142978543D01*
X94999499Y-142978543D01*
X93946426Y-142978543D01*
X95590207Y-141334762D01*
X95651528Y-141301279D01*
X95701678Y-141303441D01*
X95702191Y-141300863D01*
X95901456Y-141340500D01*
X95901459Y-141340500D01*
X96498543Y-141340500D01*
X96628582Y-141314632D01*
X96691835Y-141302051D01*
X96873914Y-141226632D01*
X97037782Y-141117139D01*
X97177139Y-140977782D01*
X97286632Y-140813914D01*
X97362051Y-140631835D01*
X97400500Y-140438541D01*
X97400500Y-140241459D01*
X97400500Y-140241456D01*
X97400499Y-140241454D01*
X97382558Y-140151254D01*
X97362052Y-140048170D01*
X97362051Y-140048169D01*
X97362051Y-140048165D01*
X97309240Y-139920667D01*
X97286635Y-139866092D01*
X97286628Y-139866079D01*
X97177139Y-139702218D01*
X97177136Y-139702214D01*
X97037785Y-139562863D01*
X97037781Y-139562860D01*
X96873920Y-139453371D01*
X96873907Y-139453364D01*
X96691839Y-139377950D01*
X96691829Y-139377947D01*
X96498543Y-139339500D01*
X96498541Y-139339500D01*
X95901459Y-139339500D01*
X95901457Y-139339500D01*
X95708170Y-139377947D01*
X95708160Y-139377950D01*
X95526092Y-139453364D01*
X95526079Y-139453371D01*
X95362218Y-139562860D01*
X95362214Y-139562863D01*
X95222863Y-139702214D01*
X95222860Y-139702218D01*
X95113371Y-139866079D01*
X95113364Y-139866092D01*
X95037950Y-140048160D01*
X95037947Y-140048170D01*
X94999500Y-140241456D01*
X94999500Y-140241459D01*
X94999500Y-140438541D01*
X94999500Y-140438543D01*
X94999499Y-140438543D01*
X95037947Y-140631829D01*
X95037950Y-140631839D01*
X95113364Y-140813907D01*
X95113370Y-140813918D01*
X95116007Y-140817864D01*
X95136887Y-140884541D01*
X95118404Y-140951922D01*
X95100588Y-140974439D01*
X89315489Y-146759540D01*
X89259541Y-146815487D01*
X89259535Y-146815495D01*
X89219982Y-146884004D01*
X89219979Y-146884009D01*
X89206326Y-146934962D01*
X89199500Y-146960438D01*
X89199500Y-154539562D01*
X89213152Y-154590513D01*
X89219979Y-154615990D01*
X89219982Y-154615995D01*
X89259535Y-154684504D01*
X89259539Y-154684509D01*
X89259540Y-154684511D01*
X94219540Y-159644511D01*
X94275489Y-159700460D01*
X94275491Y-159700461D01*
X94275495Y-159700464D01*
X94344004Y-159740017D01*
X94344011Y-159740021D01*
X94357595Y-159743661D01*
X94417254Y-159780025D01*
X94447783Y-159842872D01*
X94449500Y-159863435D01*
X94449500Y-160329752D01*
X94461131Y-160388229D01*
X94461132Y-160388230D01*
X94505447Y-160454552D01*
X94571769Y-160498867D01*
X94571770Y-160498868D01*
X94630247Y-160510499D01*
X94630250Y-160510500D01*
X94933952Y-160510500D01*
X95000991Y-160530185D01*
X95046746Y-160582989D01*
X95056690Y-160652147D01*
X95027665Y-160715703D01*
X94985735Y-160745938D01*
X94986121Y-160746694D01*
X94792439Y-160845380D01*
X94738282Y-160884727D01*
X94738282Y-160884728D01*
X95370591Y-161517037D01*
X95307007Y-161534075D01*
X95192993Y-161599901D01*
X95099901Y-161692993D01*
X95034075Y-161807007D01*
X95017037Y-161870591D01*
X94384728Y-161238282D01*
X94384727Y-161238282D01*
X94345380Y-161292439D01*
X94248904Y-161481782D01*
X94183242Y-161683869D01*
X94183242Y-161683872D01*
X94150000Y-161893753D01*
X94150000Y-162106246D01*
X94183242Y-162316127D01*
X94183242Y-162316130D01*
X94248904Y-162518217D01*
X94345375Y-162707550D01*
X94384728Y-162761716D01*
X95017037Y-162129408D01*
X95034075Y-162192993D01*
X95099901Y-162307007D01*
X95192993Y-162400099D01*
X95307007Y-162465925D01*
X95370590Y-162482962D01*
X94738282Y-163115269D01*
X94738282Y-163115270D01*
X94792449Y-163154624D01*
X94981782Y-163251095D01*
X95157973Y-163308343D01*
X95215648Y-163347780D01*
X95242847Y-163412139D01*
X95230932Y-163480985D01*
X95183688Y-163532461D01*
X95167108Y-163540835D01*
X95002403Y-163609057D01*
X94830342Y-163724024D01*
X94684024Y-163870342D01*
X94569058Y-164042403D01*
X94519125Y-164162953D01*
X94475284Y-164217356D01*
X94408990Y-164239421D01*
X94404564Y-164239500D01*
X88595436Y-164239500D01*
X88528397Y-164219815D01*
X88482642Y-164167011D01*
X88480875Y-164162953D01*
X88460195Y-164113028D01*
X88430941Y-164042402D01*
X88315977Y-163870345D01*
X88315975Y-163870342D01*
X88169657Y-163724024D01*
X88002616Y-163612412D01*
X87997598Y-163609059D01*
X87997593Y-163609057D01*
X87935891Y-163583499D01*
X87832890Y-163540834D01*
X87778488Y-163496994D01*
X87756423Y-163430700D01*
X87773702Y-163363001D01*
X87824839Y-163315390D01*
X87842026Y-163308343D01*
X88018217Y-163251095D01*
X88207554Y-163154622D01*
X88261716Y-163115270D01*
X88261717Y-163115270D01*
X87629408Y-162482962D01*
X87692993Y-162465925D01*
X87807007Y-162400099D01*
X87900099Y-162307007D01*
X87965925Y-162192993D01*
X87982962Y-162129408D01*
X88615270Y-162761717D01*
X88615270Y-162761716D01*
X88654622Y-162707554D01*
X88751095Y-162518217D01*
X88816757Y-162316130D01*
X88816757Y-162316127D01*
X88850000Y-162106246D01*
X88850000Y-161893753D01*
X88816757Y-161683872D01*
X88816757Y-161683869D01*
X88751095Y-161481782D01*
X88654624Y-161292449D01*
X88615270Y-161238282D01*
X88615269Y-161238282D01*
X87982962Y-161870590D01*
X87965925Y-161807007D01*
X87900099Y-161692993D01*
X87807007Y-161599901D01*
X87692993Y-161534075D01*
X87629409Y-161517037D01*
X88261716Y-160884728D01*
X88207550Y-160845375D01*
X88013879Y-160746694D01*
X88014396Y-160745678D01*
X87964192Y-160705221D01*
X87942127Y-160638927D01*
X87959406Y-160571228D01*
X88010542Y-160523617D01*
X88066048Y-160510500D01*
X88369750Y-160510500D01*
X88369751Y-160510499D01*
X88384568Y-160507552D01*
X88428229Y-160498868D01*
X88428229Y-160498867D01*
X88428231Y-160498867D01*
X88494552Y-160454552D01*
X88538867Y-160388231D01*
X88538867Y-160388229D01*
X88538868Y-160388229D01*
X88550499Y-160329752D01*
X88550500Y-160329750D01*
X88550500Y-158590249D01*
X88550499Y-158590247D01*
X88538868Y-158531770D01*
X88538867Y-158531769D01*
X88494552Y-158465447D01*
X88428230Y-158421132D01*
X88428229Y-158421131D01*
X88369752Y-158409500D01*
X88369748Y-158409500D01*
X87924500Y-158409500D01*
X87857461Y-158389815D01*
X87811706Y-158337011D01*
X87800500Y-158285500D01*
X87800500Y-146675832D01*
X87820185Y-146608793D01*
X87836814Y-146588156D01*
X95623560Y-138801409D01*
X95684881Y-138767926D01*
X95735431Y-138767475D01*
X95901456Y-138800500D01*
X95901459Y-138800500D01*
X96498543Y-138800500D01*
X96628582Y-138774632D01*
X96691835Y-138762051D01*
X96873914Y-138686632D01*
X97037782Y-138577139D01*
X97177139Y-138437782D01*
X97286632Y-138273914D01*
X97362051Y-138091835D01*
X97400500Y-137898541D01*
X97400500Y-137701459D01*
X97400500Y-137701456D01*
X97362052Y-137508170D01*
X97362051Y-137508169D01*
X97362051Y-137508165D01*
X97350242Y-137479655D01*
X97286635Y-137326092D01*
X97286628Y-137326079D01*
X97177139Y-137162218D01*
X97177136Y-137162214D01*
X97037785Y-137022863D01*
X97037781Y-137022860D01*
X96873920Y-136913371D01*
X96873907Y-136913364D01*
X96691839Y-136837950D01*
X96691829Y-136837947D01*
X96498543Y-136799500D01*
X96498541Y-136799500D01*
X95901459Y-136799500D01*
X95901457Y-136799500D01*
X95708170Y-136837947D01*
X95708160Y-136837950D01*
X95526092Y-136913364D01*
X95526079Y-136913371D01*
X95362218Y-137022860D01*
X95362214Y-137022863D01*
X95222863Y-137162214D01*
X95222860Y-137162218D01*
X95113371Y-137326079D01*
X95113364Y-137326092D01*
X95037950Y-137508160D01*
X95037947Y-137508170D01*
X94999500Y-137701456D01*
X94999500Y-137701459D01*
X94999500Y-137898541D01*
X94999500Y-137898543D01*
X94999499Y-137898543D01*
X95037947Y-138091829D01*
X95037950Y-138091839D01*
X95113364Y-138273906D01*
X95113371Y-138273919D01*
X95132031Y-138301845D01*
X95152909Y-138368522D01*
X95134425Y-138435903D01*
X95116610Y-138458417D01*
X87315489Y-146259540D01*
X87259541Y-146315487D01*
X87259535Y-146315495D01*
X87219982Y-146384004D01*
X87219979Y-146384009D01*
X87199500Y-146460439D01*
X87199500Y-158285500D01*
X87179815Y-158352539D01*
X87127011Y-158398294D01*
X87075500Y-158409500D01*
X86630247Y-158409500D01*
X86571770Y-158421131D01*
X86571769Y-158421132D01*
X86505447Y-158465447D01*
X86461132Y-158531769D01*
X86461131Y-158531770D01*
X86449500Y-158590247D01*
X86449500Y-160329752D01*
X86461131Y-160388229D01*
X86461132Y-160388230D01*
X86505447Y-160454552D01*
X86571769Y-160498867D01*
X86571770Y-160498868D01*
X86630247Y-160510499D01*
X86630250Y-160510500D01*
X86933952Y-160510500D01*
X87000991Y-160530185D01*
X87046746Y-160582989D01*
X87056690Y-160652147D01*
X87027665Y-160715703D01*
X86985735Y-160745938D01*
X86986121Y-160746694D01*
X86792439Y-160845380D01*
X86738282Y-160884727D01*
X86738282Y-160884728D01*
X87370591Y-161517037D01*
X87307007Y-161534075D01*
X87192993Y-161599901D01*
X87099901Y-161692993D01*
X87034075Y-161807007D01*
X87017037Y-161870591D01*
X86384728Y-161238282D01*
X86384727Y-161238282D01*
X86345380Y-161292439D01*
X86248904Y-161481782D01*
X86183242Y-161683869D01*
X86183242Y-161683872D01*
X86150000Y-161893753D01*
X57000000Y-161893753D01*
X57000000Y-145263231D01*
X61649500Y-145263231D01*
X61649500Y-147671758D01*
X61652354Y-147702198D01*
X61652354Y-147702199D01*
X61697206Y-147830381D01*
X61697207Y-147830382D01*
X61777850Y-147939650D01*
X61887118Y-148020293D01*
X62015302Y-148065146D01*
X62015301Y-148065146D01*
X62019271Y-148065518D01*
X62045735Y-148068000D01*
X62825500Y-148067999D01*
X62892539Y-148087683D01*
X62938294Y-148140487D01*
X62949500Y-148191999D01*
X62949500Y-149289562D01*
X62963152Y-149340513D01*
X62969979Y-149365990D01*
X62969982Y-149365995D01*
X63009535Y-149434504D01*
X63009539Y-149434509D01*
X63009540Y-149434511D01*
X65315489Y-151740460D01*
X65374829Y-151774720D01*
X65384008Y-151780020D01*
X65384012Y-151780022D01*
X65460438Y-151800500D01*
X65460440Y-151800500D01*
X75009560Y-151800500D01*
X75009562Y-151800500D01*
X75085989Y-151780021D01*
X75154511Y-151740460D01*
X75210460Y-151684511D01*
X78937896Y-147957073D01*
X78999217Y-147923590D01*
X79068909Y-147928574D01*
X79073007Y-147930186D01*
X79193580Y-147980130D01*
X79395494Y-148020293D01*
X79396530Y-148020499D01*
X79396534Y-148020500D01*
X79396535Y-148020500D01*
X79603466Y-148020500D01*
X79603467Y-148020499D01*
X79806420Y-147980130D01*
X79997598Y-147900941D01*
X80169655Y-147785977D01*
X80315977Y-147639655D01*
X80430941Y-147467598D01*
X80510130Y-147276420D01*
X80550500Y-147073465D01*
X80550500Y-146866535D01*
X80510130Y-146663580D01*
X80430941Y-146472402D01*
X80315977Y-146300345D01*
X80315975Y-146300342D01*
X80169657Y-146154024D01*
X80077899Y-146092714D01*
X79997598Y-146039059D01*
X79806420Y-145959870D01*
X79806412Y-145959868D01*
X79603469Y-145919500D01*
X79603465Y-145919500D01*
X79396535Y-145919500D01*
X79396530Y-145919500D01*
X79193587Y-145959868D01*
X79193579Y-145959870D01*
X79002403Y-146039058D01*
X78830342Y-146154024D01*
X78684024Y-146300342D01*
X78569058Y-146472403D01*
X78489870Y-146663579D01*
X78489868Y-146663587D01*
X78449500Y-146866530D01*
X78449500Y-147073469D01*
X78489868Y-147276412D01*
X78489871Y-147276424D01*
X78539803Y-147396971D01*
X78547272Y-147466440D01*
X78515997Y-147528919D01*
X78512923Y-147532104D01*
X74881848Y-151163181D01*
X74820525Y-151196666D01*
X74794167Y-151199500D01*
X65675833Y-151199500D01*
X65608794Y-151179815D01*
X65588152Y-151163181D01*
X63586819Y-149161848D01*
X63553334Y-149100525D01*
X63550500Y-149074167D01*
X63550500Y-148191999D01*
X63570185Y-148124960D01*
X63622989Y-148079205D01*
X63674500Y-148067999D01*
X64454258Y-148067999D01*
X64454264Y-148067999D01*
X64484698Y-148065146D01*
X64612882Y-148020293D01*
X64722150Y-147939650D01*
X64802793Y-147830382D01*
X64847646Y-147702198D01*
X64850500Y-147671765D01*
X64850499Y-146341538D01*
X66649500Y-146341538D01*
X66649500Y-146593462D01*
X66660606Y-146663579D01*
X66688910Y-146842285D01*
X66766760Y-147081883D01*
X66814630Y-147175832D01*
X66865882Y-147276420D01*
X66881132Y-147306348D01*
X67029201Y-147510149D01*
X67029205Y-147510154D01*
X67207345Y-147688294D01*
X67207350Y-147688298D01*
X67341792Y-147785975D01*
X67411155Y-147836370D01*
X67537883Y-147900941D01*
X67635616Y-147950739D01*
X67635618Y-147950739D01*
X67635621Y-147950741D01*
X67875215Y-148028590D01*
X68124038Y-148068000D01*
X68124039Y-148068000D01*
X68375961Y-148068000D01*
X68375962Y-148068000D01*
X68624785Y-148028590D01*
X68864379Y-147950741D01*
X69088845Y-147836370D01*
X69292656Y-147688293D01*
X69470793Y-147510156D01*
X69618870Y-147306345D01*
X69733241Y-147081879D01*
X69811090Y-146842285D01*
X69850500Y-146593462D01*
X69850500Y-146341538D01*
X69811090Y-146092715D01*
X69733241Y-145853121D01*
X69733239Y-145853118D01*
X69733239Y-145853116D01*
X69624310Y-145639332D01*
X69611414Y-145570663D01*
X69637690Y-145505922D01*
X69647114Y-145495356D01*
X69999634Y-145142837D01*
X70375652Y-144766819D01*
X70436975Y-144733334D01*
X70463333Y-144730500D01*
X78404564Y-144730500D01*
X78471603Y-144750185D01*
X78517358Y-144802989D01*
X78519125Y-144807047D01*
X78560282Y-144906410D01*
X78569059Y-144927598D01*
X78606919Y-144984260D01*
X78684024Y-145099657D01*
X78830342Y-145245975D01*
X78830345Y-145245977D01*
X79002402Y-145360941D01*
X79193580Y-145440130D01*
X79396530Y-145480499D01*
X79396534Y-145480500D01*
X79396535Y-145480500D01*
X79603466Y-145480500D01*
X79603467Y-145480499D01*
X79806420Y-145440130D01*
X79997598Y-145360941D01*
X80169655Y-145245977D01*
X80315977Y-145099655D01*
X80430941Y-144927598D01*
X80510130Y-144736420D01*
X80550500Y-144533465D01*
X80550500Y-144326535D01*
X80510130Y-144123580D01*
X80430941Y-143932402D01*
X80315977Y-143760345D01*
X80315975Y-143760342D01*
X80169657Y-143614024D01*
X80083626Y-143556541D01*
X79997598Y-143499059D01*
X79806420Y-143419870D01*
X79806412Y-143419868D01*
X79603469Y-143379500D01*
X79603465Y-143379500D01*
X79396535Y-143379500D01*
X79396530Y-143379500D01*
X79193587Y-143419868D01*
X79193579Y-143419870D01*
X79002403Y-143499058D01*
X78830342Y-143614024D01*
X78684024Y-143760342D01*
X78569058Y-143932403D01*
X78519125Y-144052953D01*
X78475284Y-144107356D01*
X78408990Y-144129421D01*
X78404564Y-144129500D01*
X70247938Y-144129500D01*
X70209724Y-144139739D01*
X70171509Y-144149979D01*
X70171504Y-144149982D01*
X70102995Y-144189535D01*
X70102987Y-144189541D01*
X69222142Y-145070385D01*
X69160819Y-145103870D01*
X69091127Y-145098886D01*
X69078166Y-145093189D01*
X68864383Y-144984260D01*
X68624785Y-144906410D01*
X68375962Y-144867000D01*
X68124038Y-144867000D01*
X67999626Y-144886705D01*
X67875214Y-144906410D01*
X67635616Y-144984260D01*
X67411151Y-145098632D01*
X67207350Y-145246701D01*
X67207345Y-145246705D01*
X67029205Y-145424845D01*
X67029201Y-145424850D01*
X66881132Y-145628651D01*
X66766760Y-145853116D01*
X66688910Y-146092714D01*
X66662487Y-146259540D01*
X66649500Y-146341538D01*
X64850499Y-146341538D01*
X64850499Y-145263236D01*
X64847646Y-145232802D01*
X64802793Y-145104618D01*
X64722150Y-144995350D01*
X64612882Y-144914707D01*
X64612881Y-144914706D01*
X64484695Y-144869853D01*
X64484698Y-144869853D01*
X64454268Y-144867000D01*
X62045741Y-144867000D01*
X62015301Y-144869854D01*
X62015300Y-144869854D01*
X61887118Y-144914706D01*
X61777850Y-144995350D01*
X61697206Y-145104618D01*
X61652353Y-145232802D01*
X61649500Y-145263231D01*
X57000000Y-145263231D01*
X57000000Y-133263231D01*
X61649500Y-133263231D01*
X61649500Y-135671758D01*
X61652354Y-135702198D01*
X61652354Y-135702199D01*
X61697206Y-135830381D01*
X61697207Y-135830382D01*
X61777850Y-135939650D01*
X61887118Y-136020293D01*
X62015302Y-136065146D01*
X62015301Y-136065146D01*
X62019271Y-136065518D01*
X62045735Y-136068000D01*
X62825500Y-136067999D01*
X62892539Y-136087683D01*
X62938294Y-136140487D01*
X62949500Y-136191999D01*
X62949500Y-136789562D01*
X62952163Y-136799500D01*
X62969979Y-136865990D01*
X62969980Y-136865991D01*
X62997333Y-136913368D01*
X63009540Y-136934511D01*
X68205489Y-142130460D01*
X68274012Y-142170022D01*
X68350438Y-142190500D01*
X78404564Y-142190500D01*
X78471603Y-142210185D01*
X78517358Y-142262989D01*
X78519125Y-142267047D01*
X78569058Y-142387596D01*
X78684024Y-142559657D01*
X78830342Y-142705975D01*
X78830345Y-142705977D01*
X79002402Y-142820941D01*
X79193580Y-142900130D01*
X79396530Y-142940499D01*
X79396534Y-142940500D01*
X79396535Y-142940500D01*
X79603466Y-142940500D01*
X79603467Y-142940499D01*
X79806420Y-142900130D01*
X79997598Y-142820941D01*
X80169655Y-142705977D01*
X80315977Y-142559655D01*
X80430941Y-142387598D01*
X80510130Y-142196420D01*
X80550500Y-141993465D01*
X80550500Y-141786535D01*
X80510130Y-141583580D01*
X80430941Y-141392402D01*
X80315977Y-141220345D01*
X80315975Y-141220342D01*
X80169657Y-141074024D01*
X80083626Y-141016541D01*
X79997598Y-140959059D01*
X79861007Y-140902481D01*
X79806420Y-140879870D01*
X79806412Y-140879868D01*
X79603469Y-140839500D01*
X79603465Y-140839500D01*
X79396535Y-140839500D01*
X79396530Y-140839500D01*
X79193587Y-140879868D01*
X79193579Y-140879870D01*
X79002403Y-140959058D01*
X78830342Y-141074024D01*
X78684024Y-141220342D01*
X78569058Y-141392403D01*
X78519125Y-141512953D01*
X78475284Y-141567356D01*
X78408990Y-141589421D01*
X78404564Y-141589500D01*
X68565833Y-141589500D01*
X68498794Y-141569815D01*
X68478152Y-141553181D01*
X63586819Y-136661848D01*
X63553334Y-136600525D01*
X63550500Y-136574167D01*
X63550500Y-136191999D01*
X63570185Y-136124960D01*
X63622989Y-136079205D01*
X63674500Y-136067999D01*
X64454258Y-136067999D01*
X64454264Y-136067999D01*
X64484698Y-136065146D01*
X64612882Y-136020293D01*
X64722150Y-135939650D01*
X64802793Y-135830382D01*
X64847646Y-135702198D01*
X64850500Y-135671765D01*
X64850499Y-134341538D01*
X66649500Y-134341538D01*
X66649500Y-134593461D01*
X66688910Y-134842285D01*
X66766760Y-135081883D01*
X66827424Y-135200941D01*
X66867773Y-135280131D01*
X66881132Y-135306348D01*
X67029201Y-135510149D01*
X67029205Y-135510154D01*
X67207345Y-135688294D01*
X67207350Y-135688298D01*
X67270126Y-135733907D01*
X67411155Y-135836370D01*
X67501518Y-135882412D01*
X67635616Y-135950739D01*
X67635618Y-135950739D01*
X67635621Y-135950741D01*
X67875215Y-136028590D01*
X68124038Y-136068000D01*
X68124039Y-136068000D01*
X68375961Y-136068000D01*
X68375962Y-136068000D01*
X68624785Y-136028590D01*
X68864379Y-135950741D01*
X69088845Y-135836370D01*
X69292656Y-135688293D01*
X69470793Y-135510156D01*
X69618870Y-135306345D01*
X69733241Y-135081879D01*
X69807387Y-134853682D01*
X69846825Y-134796006D01*
X69911183Y-134768808D01*
X69925318Y-134768000D01*
X74441667Y-134768000D01*
X74508706Y-134787685D01*
X74529348Y-134804319D01*
X78512924Y-138787895D01*
X78546409Y-138849218D01*
X78541425Y-138918910D01*
X78539804Y-138923029D01*
X78489870Y-139043579D01*
X78489868Y-139043587D01*
X78449500Y-139246530D01*
X78449500Y-139453469D01*
X78489868Y-139656412D01*
X78489870Y-139656420D01*
X78569058Y-139847596D01*
X78684024Y-140019657D01*
X78830342Y-140165975D01*
X78830345Y-140165977D01*
X79002402Y-140280941D01*
X79193580Y-140360130D01*
X79390221Y-140399244D01*
X79396530Y-140400499D01*
X79396534Y-140400500D01*
X79396535Y-140400500D01*
X79603466Y-140400500D01*
X79603467Y-140400499D01*
X79806420Y-140360130D01*
X79997598Y-140280941D01*
X80169655Y-140165977D01*
X80315977Y-140019655D01*
X80430941Y-139847598D01*
X80510130Y-139656420D01*
X80550500Y-139453465D01*
X80550500Y-139246535D01*
X80510130Y-139043580D01*
X80430941Y-138852402D01*
X80315977Y-138680345D01*
X80315975Y-138680342D01*
X80169657Y-138534024D01*
X80056502Y-138458417D01*
X79997598Y-138419059D01*
X79945002Y-138397273D01*
X79806420Y-138339870D01*
X79806412Y-138339868D01*
X79603469Y-138299500D01*
X79603465Y-138299500D01*
X79396535Y-138299500D01*
X79396530Y-138299500D01*
X79193587Y-138339868D01*
X79193579Y-138339870D01*
X79073029Y-138389804D01*
X79003559Y-138397273D01*
X78941080Y-138365998D01*
X78937895Y-138362924D01*
X77281501Y-136706530D01*
X78449500Y-136706530D01*
X78449500Y-136913469D01*
X78489868Y-137116412D01*
X78489870Y-137116420D01*
X78569058Y-137307596D01*
X78684024Y-137479657D01*
X78830342Y-137625975D01*
X78830345Y-137625977D01*
X79002402Y-137740941D01*
X79193580Y-137820130D01*
X79396530Y-137860499D01*
X79396534Y-137860500D01*
X79396535Y-137860500D01*
X79603466Y-137860500D01*
X79603467Y-137860499D01*
X79806420Y-137820130D01*
X79997598Y-137740941D01*
X80169655Y-137625977D01*
X80315977Y-137479655D01*
X80430941Y-137307598D01*
X80510130Y-137116420D01*
X80550500Y-136913465D01*
X80550500Y-136706535D01*
X80510130Y-136503580D01*
X80460194Y-136383026D01*
X80452726Y-136313559D01*
X80484001Y-136251080D01*
X80487045Y-136247924D01*
X81138152Y-135596819D01*
X81199475Y-135563334D01*
X81225833Y-135560500D01*
X94958684Y-135560500D01*
X95025723Y-135580185D01*
X95071478Y-135632989D01*
X95073245Y-135637048D01*
X95113364Y-135733907D01*
X95113371Y-135733920D01*
X95222860Y-135897781D01*
X95222863Y-135897785D01*
X95362214Y-136037136D01*
X95362218Y-136037139D01*
X95526079Y-136146628D01*
X95526092Y-136146635D01*
X95635612Y-136191999D01*
X95708165Y-136222051D01*
X95708169Y-136222051D01*
X95708170Y-136222052D01*
X95901456Y-136260500D01*
X95901459Y-136260500D01*
X96498543Y-136260500D01*
X96628582Y-136234632D01*
X96691835Y-136222051D01*
X96873914Y-136146632D01*
X97037782Y-136037139D01*
X97177139Y-135897782D01*
X97286632Y-135733914D01*
X97362051Y-135551835D01*
X97400500Y-135358543D01*
X117859499Y-135358543D01*
X117897947Y-135551829D01*
X117897950Y-135551839D01*
X117973364Y-135733907D01*
X117973371Y-135733920D01*
X118082860Y-135897781D01*
X118082863Y-135897785D01*
X118222214Y-136037136D01*
X118222218Y-136037139D01*
X118386079Y-136146628D01*
X118386092Y-136146635D01*
X118495612Y-136191999D01*
X118568165Y-136222051D01*
X118568169Y-136222051D01*
X118568170Y-136222052D01*
X118761456Y-136260500D01*
X118761459Y-136260500D01*
X119358543Y-136260500D01*
X119488582Y-136234632D01*
X119551835Y-136222051D01*
X119733914Y-136146632D01*
X119897782Y-136037139D01*
X120037139Y-135897782D01*
X120146632Y-135733914D01*
X120222051Y-135551835D01*
X120260500Y-135358541D01*
X120260500Y-135161459D01*
X120260500Y-135161456D01*
X120222052Y-134968170D01*
X120222051Y-134968169D01*
X120222051Y-134968165D01*
X120174631Y-134853682D01*
X120146635Y-134786092D01*
X120146628Y-134786079D01*
X120037139Y-134622218D01*
X120037136Y-134622214D01*
X119897785Y-134482863D01*
X119897781Y-134482860D01*
X119733920Y-134373371D01*
X119733907Y-134373364D01*
X119551839Y-134297950D01*
X119551829Y-134297947D01*
X119358543Y-134259500D01*
X119358541Y-134259500D01*
X118761459Y-134259500D01*
X118761457Y-134259500D01*
X118568170Y-134297947D01*
X118568160Y-134297950D01*
X118386092Y-134373364D01*
X118386079Y-134373371D01*
X118222218Y-134482860D01*
X118222214Y-134482863D01*
X118082863Y-134622214D01*
X118082860Y-134622218D01*
X117973371Y-134786079D01*
X117973364Y-134786092D01*
X117897950Y-134968160D01*
X117897947Y-134968170D01*
X117859500Y-135161456D01*
X117859500Y-135161459D01*
X117859500Y-135358541D01*
X117859500Y-135358543D01*
X117859499Y-135358543D01*
X97400500Y-135358543D01*
X97400500Y-135358541D01*
X97400500Y-135161459D01*
X97400500Y-135161456D01*
X97362052Y-134968170D01*
X97362051Y-134968169D01*
X97362051Y-134968165D01*
X97314631Y-134853682D01*
X97286635Y-134786092D01*
X97286628Y-134786079D01*
X97177139Y-134622218D01*
X97177136Y-134622214D01*
X97037785Y-134482863D01*
X97037781Y-134482860D01*
X96873920Y-134373371D01*
X96873907Y-134373364D01*
X96691839Y-134297950D01*
X96691829Y-134297947D01*
X96498543Y-134259500D01*
X96498541Y-134259500D01*
X95901459Y-134259500D01*
X95901457Y-134259500D01*
X95708170Y-134297947D01*
X95708160Y-134297950D01*
X95526092Y-134373364D01*
X95526079Y-134373371D01*
X95362218Y-134482860D01*
X95362214Y-134482863D01*
X95222863Y-134622214D01*
X95222860Y-134622218D01*
X95113371Y-134786079D01*
X95113364Y-134786092D01*
X95073245Y-134882952D01*
X95029405Y-134937356D01*
X94963111Y-134959421D01*
X94958684Y-134959500D01*
X81010438Y-134959500D01*
X80978082Y-134968170D01*
X80934009Y-134979979D01*
X80934004Y-134979982D01*
X80865495Y-135019535D01*
X80865487Y-135019541D01*
X80062104Y-135822923D01*
X80000781Y-135856408D01*
X79931089Y-135851424D01*
X79926971Y-135849803D01*
X79806424Y-135799871D01*
X79806412Y-135799868D01*
X79603469Y-135759500D01*
X79603465Y-135759500D01*
X79396535Y-135759500D01*
X79396530Y-135759500D01*
X79193587Y-135799868D01*
X79193579Y-135799870D01*
X79002403Y-135879058D01*
X78830342Y-135994024D01*
X78684024Y-136140342D01*
X78569058Y-136312403D01*
X78489870Y-136503579D01*
X78489868Y-136503587D01*
X78449500Y-136706530D01*
X77281501Y-136706530D01*
X74802012Y-134227041D01*
X74802004Y-134227035D01*
X74733495Y-134187482D01*
X74733490Y-134187479D01*
X74708013Y-134180652D01*
X74657062Y-134167000D01*
X74657060Y-134167000D01*
X69925318Y-134167000D01*
X69923717Y-134166530D01*
X78449500Y-134166530D01*
X78449500Y-134373469D01*
X78471260Y-134482863D01*
X78489870Y-134576420D01*
X78569059Y-134767598D01*
X78593595Y-134804319D01*
X78684024Y-134939657D01*
X78830342Y-135085975D01*
X78830345Y-135085977D01*
X79002402Y-135200941D01*
X79193580Y-135280130D01*
X79325373Y-135306345D01*
X79396530Y-135320499D01*
X79396534Y-135320500D01*
X79396535Y-135320500D01*
X79603466Y-135320500D01*
X79603467Y-135320499D01*
X79806420Y-135280130D01*
X79997598Y-135200941D01*
X80169655Y-135085977D01*
X80315977Y-134939655D01*
X80430941Y-134767598D01*
X80510130Y-134576420D01*
X80550500Y-134373465D01*
X80550500Y-134166535D01*
X80510130Y-133963580D01*
X80460194Y-133843026D01*
X80452726Y-133773559D01*
X80484001Y-133711080D01*
X80487045Y-133707924D01*
X81138152Y-133056819D01*
X81199475Y-133023334D01*
X81225833Y-133020500D01*
X94958684Y-133020500D01*
X95025723Y-133040185D01*
X95071478Y-133092989D01*
X95073245Y-133097048D01*
X95113364Y-133193907D01*
X95113371Y-133193920D01*
X95222860Y-133357781D01*
X95222863Y-133357785D01*
X95362214Y-133497136D01*
X95362218Y-133497139D01*
X95526079Y-133606628D01*
X95526092Y-133606635D01*
X95708160Y-133682049D01*
X95708165Y-133682051D01*
X95708169Y-133682051D01*
X95708170Y-133682052D01*
X95901456Y-133720500D01*
X95901459Y-133720500D01*
X96498543Y-133720500D01*
X96628582Y-133694632D01*
X96691835Y-133682051D01*
X96873914Y-133606632D01*
X97037782Y-133497139D01*
X97177139Y-133357782D01*
X97286632Y-133193914D01*
X97362051Y-133011835D01*
X97390293Y-132869854D01*
X97400500Y-132818543D01*
X117859499Y-132818543D01*
X117897947Y-133011829D01*
X117897950Y-133011839D01*
X117973364Y-133193907D01*
X117973371Y-133193920D01*
X118082860Y-133357781D01*
X118082863Y-133357785D01*
X118222214Y-133497136D01*
X118222218Y-133497139D01*
X118386079Y-133606628D01*
X118386092Y-133606635D01*
X118568160Y-133682049D01*
X118568165Y-133682051D01*
X118568169Y-133682051D01*
X118568170Y-133682052D01*
X118761456Y-133720500D01*
X118761459Y-133720500D01*
X119358543Y-133720500D01*
X119488582Y-133694632D01*
X119551835Y-133682051D01*
X119733914Y-133606632D01*
X119897782Y-133497139D01*
X120037139Y-133357782D01*
X120146632Y-133193914D01*
X120222051Y-133011835D01*
X120250293Y-132869854D01*
X120260500Y-132818543D01*
X120260500Y-132621456D01*
X120222052Y-132428170D01*
X120222051Y-132428169D01*
X120222051Y-132428165D01*
X120186755Y-132342952D01*
X120146635Y-132246092D01*
X120146628Y-132246079D01*
X120037139Y-132082218D01*
X120037136Y-132082214D01*
X119897785Y-131942863D01*
X119897781Y-131942860D01*
X119733920Y-131833371D01*
X119733907Y-131833364D01*
X119551839Y-131757950D01*
X119551829Y-131757947D01*
X119358543Y-131719500D01*
X119358541Y-131719500D01*
X118761459Y-131719500D01*
X118761457Y-131719500D01*
X118568170Y-131757947D01*
X118568160Y-131757950D01*
X118386092Y-131833364D01*
X118386079Y-131833371D01*
X118222218Y-131942860D01*
X118222214Y-131942863D01*
X118082863Y-132082214D01*
X118082860Y-132082218D01*
X117973371Y-132246079D01*
X117973364Y-132246092D01*
X117897950Y-132428160D01*
X117897947Y-132428170D01*
X117859500Y-132621456D01*
X117859500Y-132621459D01*
X117859500Y-132818541D01*
X117859500Y-132818543D01*
X117859499Y-132818543D01*
X97400500Y-132818543D01*
X97400500Y-132621456D01*
X97362052Y-132428170D01*
X97362051Y-132428169D01*
X97362051Y-132428165D01*
X97326755Y-132342952D01*
X97286635Y-132246092D01*
X97286628Y-132246079D01*
X97177139Y-132082218D01*
X97177136Y-132082214D01*
X97037785Y-131942863D01*
X97037781Y-131942860D01*
X96873920Y-131833371D01*
X96873907Y-131833364D01*
X96691839Y-131757950D01*
X96691829Y-131757947D01*
X96498543Y-131719500D01*
X96498541Y-131719500D01*
X95901459Y-131719500D01*
X95901457Y-131719500D01*
X95708170Y-131757947D01*
X95708160Y-131757950D01*
X95526092Y-131833364D01*
X95526079Y-131833371D01*
X95362218Y-131942860D01*
X95362214Y-131942863D01*
X95222863Y-132082214D01*
X95222860Y-132082218D01*
X95113371Y-132246079D01*
X95113364Y-132246092D01*
X95073245Y-132342952D01*
X95029405Y-132397356D01*
X94963111Y-132419421D01*
X94958684Y-132419500D01*
X81010438Y-132419500D01*
X80978082Y-132428170D01*
X80934009Y-132439979D01*
X80934004Y-132439982D01*
X80865495Y-132479535D01*
X80865487Y-132479541D01*
X80062104Y-133282923D01*
X80000781Y-133316408D01*
X79931089Y-133311424D01*
X79926971Y-133309803D01*
X79806424Y-133259871D01*
X79806412Y-133259868D01*
X79603469Y-133219500D01*
X79603465Y-133219500D01*
X79396535Y-133219500D01*
X79396530Y-133219500D01*
X79193587Y-133259868D01*
X79193579Y-133259870D01*
X79002403Y-133339058D01*
X78830342Y-133454024D01*
X78684024Y-133600342D01*
X78569058Y-133772403D01*
X78489870Y-133963579D01*
X78489868Y-133963587D01*
X78449500Y-134166530D01*
X69923717Y-134166530D01*
X69858279Y-134147315D01*
X69812524Y-134094511D01*
X69807387Y-134081318D01*
X69799685Y-134057615D01*
X69733241Y-133853121D01*
X69618870Y-133628655D01*
X69598299Y-133600342D01*
X69470798Y-133424850D01*
X69470794Y-133424845D01*
X69292654Y-133246705D01*
X69292649Y-133246701D01*
X69088848Y-133098632D01*
X69088847Y-133098631D01*
X69088845Y-133098630D01*
X69006786Y-133056819D01*
X68864383Y-132984260D01*
X68624785Y-132906410D01*
X68375962Y-132867000D01*
X68124038Y-132867000D01*
X67999626Y-132886705D01*
X67875214Y-132906410D01*
X67635616Y-132984260D01*
X67411151Y-133098632D01*
X67207350Y-133246701D01*
X67207345Y-133246705D01*
X67029205Y-133424845D01*
X67029201Y-133424850D01*
X66881132Y-133628651D01*
X66766760Y-133853116D01*
X66688910Y-134092714D01*
X66649500Y-134341538D01*
X64850499Y-134341538D01*
X64850499Y-133263236D01*
X64847646Y-133232802D01*
X64802793Y-133104618D01*
X64722150Y-132995350D01*
X64612882Y-132914707D01*
X64612881Y-132914706D01*
X64484695Y-132869853D01*
X64484698Y-132869853D01*
X64454268Y-132867000D01*
X62045741Y-132867000D01*
X62015301Y-132869854D01*
X62015300Y-132869854D01*
X61887118Y-132914706D01*
X61777850Y-132995350D01*
X61697206Y-133104618D01*
X61652353Y-133232802D01*
X61649500Y-133263231D01*
X57000000Y-133263231D01*
X57000000Y-128320247D01*
X78449500Y-128320247D01*
X78449500Y-130059752D01*
X78461131Y-130118229D01*
X78461132Y-130118230D01*
X78505447Y-130184552D01*
X78571769Y-130228867D01*
X78571770Y-130228868D01*
X78630247Y-130240499D01*
X78630250Y-130240500D01*
X80265166Y-130240500D01*
X80332205Y-130260185D01*
X80377960Y-130312989D01*
X80387904Y-130382147D01*
X80358879Y-130445703D01*
X80352847Y-130452181D01*
X80062104Y-130742923D01*
X80000781Y-130776408D01*
X79931089Y-130771424D01*
X79926971Y-130769803D01*
X79806424Y-130719871D01*
X79806412Y-130719868D01*
X79603469Y-130679500D01*
X79603465Y-130679500D01*
X79396535Y-130679500D01*
X79396530Y-130679500D01*
X79193587Y-130719868D01*
X79193579Y-130719870D01*
X79002403Y-130799058D01*
X78830342Y-130914024D01*
X78684024Y-131060342D01*
X78569058Y-131232403D01*
X78489870Y-131423579D01*
X78489868Y-131423587D01*
X78449500Y-131626530D01*
X78449500Y-131833469D01*
X78489868Y-132036412D01*
X78489870Y-132036420D01*
X78569058Y-132227596D01*
X78684024Y-132399657D01*
X78830342Y-132545975D01*
X78830345Y-132545977D01*
X79002402Y-132660941D01*
X79193580Y-132740130D01*
X79396530Y-132780499D01*
X79396534Y-132780500D01*
X79396535Y-132780500D01*
X79603466Y-132780500D01*
X79603467Y-132780499D01*
X79806420Y-132740130D01*
X79997598Y-132660941D01*
X80169655Y-132545977D01*
X80315977Y-132399655D01*
X80430941Y-132227598D01*
X80510130Y-132036420D01*
X80550500Y-131833465D01*
X80550500Y-131626535D01*
X80510130Y-131423580D01*
X80460194Y-131303026D01*
X80452726Y-131233559D01*
X80484001Y-131171080D01*
X80487045Y-131167924D01*
X81138152Y-130516819D01*
X81199475Y-130483334D01*
X81225833Y-130480500D01*
X94958684Y-130480500D01*
X95025723Y-130500185D01*
X95071478Y-130552989D01*
X95073245Y-130557048D01*
X95113364Y-130653907D01*
X95113371Y-130653920D01*
X95222860Y-130817781D01*
X95222863Y-130817785D01*
X95362214Y-130957136D01*
X95362218Y-130957139D01*
X95526079Y-131066628D01*
X95526092Y-131066635D01*
X95708160Y-131142049D01*
X95708165Y-131142051D01*
X95708169Y-131142051D01*
X95708170Y-131142052D01*
X95901456Y-131180500D01*
X95901459Y-131180500D01*
X96498543Y-131180500D01*
X96628582Y-131154632D01*
X96691835Y-131142051D01*
X96873914Y-131066632D01*
X97037782Y-130957139D01*
X97177139Y-130817782D01*
X97286632Y-130653914D01*
X97362051Y-130471835D01*
X97400500Y-130278543D01*
X117859499Y-130278543D01*
X117897947Y-130471829D01*
X117897950Y-130471839D01*
X117973364Y-130653907D01*
X117973371Y-130653920D01*
X118082860Y-130817781D01*
X118082863Y-130817785D01*
X118222214Y-130957136D01*
X118222218Y-130957139D01*
X118386079Y-131066628D01*
X118386092Y-131066635D01*
X118568160Y-131142049D01*
X118568165Y-131142051D01*
X118568169Y-131142051D01*
X118568170Y-131142052D01*
X118761456Y-131180500D01*
X118761459Y-131180500D01*
X119358543Y-131180500D01*
X119488582Y-131154632D01*
X119551835Y-131142051D01*
X119733914Y-131066632D01*
X119897782Y-130957139D01*
X120037139Y-130817782D01*
X120146632Y-130653914D01*
X120222051Y-130471835D01*
X120260500Y-130278541D01*
X120260500Y-130081459D01*
X120260500Y-130081456D01*
X120222052Y-129888170D01*
X120222051Y-129888169D01*
X120222051Y-129888165D01*
X120186755Y-129802952D01*
X120146635Y-129706092D01*
X120146628Y-129706079D01*
X120037139Y-129542218D01*
X120037136Y-129542214D01*
X119897785Y-129402863D01*
X119897781Y-129402860D01*
X119733920Y-129293371D01*
X119733907Y-129293364D01*
X119551839Y-129217950D01*
X119551829Y-129217947D01*
X119358543Y-129179500D01*
X119358541Y-129179500D01*
X118761459Y-129179500D01*
X118761457Y-129179500D01*
X118568170Y-129217947D01*
X118568160Y-129217950D01*
X118386092Y-129293364D01*
X118386079Y-129293371D01*
X118222218Y-129402860D01*
X118222214Y-129402863D01*
X118082863Y-129542214D01*
X118082860Y-129542218D01*
X117973371Y-129706079D01*
X117973364Y-129706092D01*
X117897950Y-129888160D01*
X117897947Y-129888170D01*
X117859500Y-130081456D01*
X117859500Y-130081459D01*
X117859500Y-130278541D01*
X117859500Y-130278543D01*
X117859499Y-130278543D01*
X97400500Y-130278543D01*
X97400500Y-130278541D01*
X97400500Y-130081459D01*
X97400500Y-130081456D01*
X97362052Y-129888170D01*
X97362051Y-129888169D01*
X97362051Y-129888165D01*
X97326755Y-129802952D01*
X97286635Y-129706092D01*
X97286628Y-129706079D01*
X97177139Y-129542218D01*
X97177136Y-129542214D01*
X97037785Y-129402863D01*
X97037781Y-129402860D01*
X96873920Y-129293371D01*
X96873907Y-129293364D01*
X96691839Y-129217950D01*
X96691829Y-129217947D01*
X96498543Y-129179500D01*
X96498541Y-129179500D01*
X95901459Y-129179500D01*
X95901457Y-129179500D01*
X95708170Y-129217947D01*
X95708160Y-129217950D01*
X95526092Y-129293364D01*
X95526079Y-129293371D01*
X95362218Y-129402860D01*
X95362214Y-129402863D01*
X95222863Y-129542214D01*
X95222860Y-129542218D01*
X95113371Y-129706079D01*
X95113364Y-129706092D01*
X95073245Y-129802952D01*
X95029405Y-129857356D01*
X94963111Y-129879421D01*
X94958684Y-129879500D01*
X81010438Y-129879500D01*
X80978082Y-129888170D01*
X80934009Y-129899979D01*
X80934004Y-129899982D01*
X80865495Y-129939535D01*
X80865491Y-129939538D01*
X80762181Y-130042848D01*
X80700858Y-130076332D01*
X80631166Y-130071348D01*
X80575233Y-130029476D01*
X80550816Y-129964011D01*
X80550500Y-129955166D01*
X80550500Y-129614500D01*
X80570185Y-129547461D01*
X80622989Y-129501706D01*
X80674500Y-129490500D01*
X94689560Y-129490500D01*
X94689562Y-129490500D01*
X94765989Y-129470021D01*
X94834511Y-129430460D01*
X94890460Y-129374511D01*
X95623560Y-128641409D01*
X95684881Y-128607926D01*
X95735431Y-128607475D01*
X95901456Y-128640500D01*
X95901459Y-128640500D01*
X96498543Y-128640500D01*
X96628582Y-128614632D01*
X96691835Y-128602051D01*
X96873914Y-128526632D01*
X97037782Y-128417139D01*
X97177139Y-128277782D01*
X97286632Y-128113914D01*
X97362051Y-127931835D01*
X97400500Y-127738543D01*
X117859499Y-127738543D01*
X117897947Y-127931829D01*
X117897950Y-127931839D01*
X117973364Y-128113907D01*
X117973371Y-128113920D01*
X118082860Y-128277781D01*
X118082863Y-128277785D01*
X118222214Y-128417136D01*
X118222218Y-128417139D01*
X118386079Y-128526628D01*
X118386092Y-128526635D01*
X118568160Y-128602049D01*
X118568165Y-128602051D01*
X118568169Y-128602051D01*
X118568170Y-128602052D01*
X118761456Y-128640500D01*
X118761459Y-128640500D01*
X119358543Y-128640500D01*
X119488582Y-128614632D01*
X119551835Y-128602051D01*
X119733914Y-128526632D01*
X119897782Y-128417139D01*
X120037139Y-128277782D01*
X120146632Y-128113914D01*
X120222051Y-127931835D01*
X120260500Y-127738541D01*
X120260500Y-127541459D01*
X120260500Y-127541456D01*
X120222052Y-127348170D01*
X120222051Y-127348169D01*
X120222051Y-127348165D01*
X120222049Y-127348160D01*
X120146635Y-127166092D01*
X120146628Y-127166079D01*
X120037139Y-127002218D01*
X120037136Y-127002214D01*
X119897785Y-126862863D01*
X119897781Y-126862860D01*
X119733920Y-126753371D01*
X119733907Y-126753364D01*
X119551839Y-126677950D01*
X119551829Y-126677947D01*
X119358543Y-126639500D01*
X119358541Y-126639500D01*
X118761459Y-126639500D01*
X118761457Y-126639500D01*
X118568170Y-126677947D01*
X118568160Y-126677950D01*
X118386092Y-126753364D01*
X118386079Y-126753371D01*
X118222218Y-126862860D01*
X118222214Y-126862863D01*
X118082863Y-127002214D01*
X118082860Y-127002218D01*
X117973371Y-127166079D01*
X117973364Y-127166092D01*
X117897950Y-127348160D01*
X117897947Y-127348170D01*
X117859500Y-127541456D01*
X117859500Y-127541459D01*
X117859500Y-127738541D01*
X117859500Y-127738543D01*
X117859499Y-127738543D01*
X97400500Y-127738543D01*
X97400500Y-127738541D01*
X97400500Y-127541459D01*
X97400500Y-127541456D01*
X97362052Y-127348170D01*
X97362051Y-127348169D01*
X97362051Y-127348165D01*
X97362049Y-127348160D01*
X97286635Y-127166092D01*
X97286628Y-127166079D01*
X97177139Y-127002218D01*
X97177136Y-127002214D01*
X97037785Y-126862863D01*
X97037781Y-126862860D01*
X96873920Y-126753371D01*
X96873907Y-126753364D01*
X96691839Y-126677950D01*
X96691829Y-126677947D01*
X96498543Y-126639500D01*
X96498541Y-126639500D01*
X95901459Y-126639500D01*
X95901457Y-126639500D01*
X95708170Y-126677947D01*
X95708160Y-126677950D01*
X95526092Y-126753364D01*
X95526079Y-126753371D01*
X95362218Y-126862860D01*
X95362214Y-126862863D01*
X95222863Y-127002214D01*
X95222860Y-127002218D01*
X95113371Y-127166079D01*
X95113364Y-127166092D01*
X95037950Y-127348160D01*
X95037947Y-127348170D01*
X94999500Y-127541456D01*
X94999500Y-127541459D01*
X94999500Y-127738541D01*
X94999500Y-127738543D01*
X94999499Y-127738543D01*
X95037947Y-127931829D01*
X95037950Y-127931839D01*
X95113364Y-128113906D01*
X95113371Y-128113919D01*
X95132031Y-128141845D01*
X95152909Y-128208522D01*
X95134425Y-128275903D01*
X95116610Y-128298417D01*
X94561848Y-128853181D01*
X94500525Y-128886666D01*
X94474167Y-128889500D01*
X80674500Y-128889500D01*
X80607461Y-128869815D01*
X80561706Y-128817011D01*
X80550500Y-128765500D01*
X80550500Y-128320249D01*
X80550499Y-128320247D01*
X80538868Y-128261770D01*
X80538867Y-128261769D01*
X80494552Y-128195447D01*
X80428230Y-128151132D01*
X80428229Y-128151131D01*
X80369752Y-128139500D01*
X80369748Y-128139500D01*
X78630252Y-128139500D01*
X78630247Y-128139500D01*
X78571770Y-128151131D01*
X78571769Y-128151132D01*
X78505447Y-128195447D01*
X78461132Y-128261769D01*
X78461131Y-128261770D01*
X78449500Y-128320247D01*
X57000000Y-128320247D01*
X57000000Y-124080247D01*
X94999500Y-124080247D01*
X94999500Y-126119752D01*
X95011131Y-126178229D01*
X95011132Y-126178230D01*
X95055447Y-126244552D01*
X95121769Y-126288867D01*
X95121770Y-126288868D01*
X95180247Y-126300499D01*
X95180250Y-126300500D01*
X95180252Y-126300500D01*
X97219750Y-126300500D01*
X97219751Y-126300499D01*
X97234568Y-126297552D01*
X97278229Y-126288868D01*
X97278229Y-126288867D01*
X97278231Y-126288867D01*
X97344552Y-126244552D01*
X97388867Y-126178231D01*
X97388867Y-126178229D01*
X97388868Y-126178229D01*
X97400499Y-126119752D01*
X97400500Y-126119750D01*
X97400500Y-124080249D01*
X97400499Y-124080247D01*
X97388868Y-124021770D01*
X97388867Y-124021769D01*
X97344552Y-123955447D01*
X97278230Y-123911132D01*
X97278229Y-123911131D01*
X97219752Y-123899500D01*
X97219748Y-123899500D01*
X95180252Y-123899500D01*
X95180247Y-123899500D01*
X95121770Y-123911131D01*
X95121769Y-123911132D01*
X95055447Y-123955447D01*
X95011132Y-124021769D01*
X95011131Y-124021770D01*
X94999500Y-124080247D01*
X57000000Y-124080247D01*
X57000000Y-110222514D01*
X93851734Y-110222514D01*
X93954072Y-123398355D01*
X93954073Y-123398356D01*
X118651132Y-123871511D01*
X118717781Y-123892476D01*
X118762516Y-123946147D01*
X118771133Y-124015483D01*
X118740896Y-124078471D01*
X118681405Y-124115112D01*
X118672948Y-124117105D01*
X118568170Y-124137947D01*
X118568160Y-124137950D01*
X118386092Y-124213364D01*
X118386079Y-124213371D01*
X118222218Y-124322860D01*
X118222214Y-124322863D01*
X118082863Y-124462214D01*
X118082860Y-124462218D01*
X117973371Y-124626079D01*
X117973364Y-124626092D01*
X117897950Y-124808160D01*
X117897947Y-124808170D01*
X117859500Y-125001456D01*
X117859500Y-125001459D01*
X117859500Y-125198541D01*
X117859500Y-125198543D01*
X117859499Y-125198543D01*
X117897947Y-125391829D01*
X117897950Y-125391839D01*
X117973364Y-125573907D01*
X117973371Y-125573920D01*
X118082860Y-125737781D01*
X118082863Y-125737785D01*
X118222214Y-125877136D01*
X118222218Y-125877139D01*
X118386079Y-125986628D01*
X118386092Y-125986635D01*
X118568160Y-126062049D01*
X118568165Y-126062051D01*
X118568169Y-126062051D01*
X118568170Y-126062052D01*
X118761456Y-126100500D01*
X118761459Y-126100500D01*
X119358543Y-126100500D01*
X119488582Y-126074632D01*
X119551835Y-126062051D01*
X119733914Y-125986632D01*
X119897782Y-125877139D01*
X120037139Y-125737782D01*
X120146632Y-125573914D01*
X120222051Y-125391835D01*
X120260500Y-125198541D01*
X120260500Y-125001459D01*
X120260500Y-125001456D01*
X120222052Y-124808170D01*
X120222051Y-124808169D01*
X120222051Y-124808165D01*
X120222049Y-124808160D01*
X120146635Y-124626092D01*
X120146628Y-124626079D01*
X120037139Y-124462218D01*
X120037136Y-124462214D01*
X119897785Y-124322863D01*
X119897781Y-124322860D01*
X119733920Y-124213371D01*
X119733907Y-124213364D01*
X119551839Y-124137950D01*
X119551833Y-124137948D01*
X119534709Y-124134542D01*
X119472799Y-124102155D01*
X119438227Y-124041438D01*
X119441969Y-123971669D01*
X119482837Y-123914998D01*
X119547855Y-123889418D01*
X119561269Y-123888948D01*
X122138101Y-123938316D01*
X122232928Y-123940133D01*
X122232928Y-123940132D01*
X122232929Y-123940133D01*
X122500000Y-110000000D01*
X122499999Y-109999999D01*
X93851734Y-110222514D01*
X57000000Y-110222514D01*
X57000000Y-102504765D01*
X57000365Y-102495255D01*
X57034449Y-102052155D01*
X111560000Y-102052155D01*
X111560000Y-102750000D01*
X112584722Y-102750000D01*
X112540667Y-102826306D01*
X112510000Y-102940756D01*
X112510000Y-103059244D01*
X112540667Y-103173694D01*
X112584722Y-103250000D01*
X111560000Y-103250000D01*
X111560000Y-103947844D01*
X111566401Y-104007372D01*
X111566403Y-104007379D01*
X111616645Y-104142086D01*
X111616649Y-104142093D01*
X111702809Y-104257187D01*
X111702812Y-104257190D01*
X111817906Y-104343350D01*
X111817913Y-104343354D01*
X111952620Y-104393596D01*
X111952627Y-104393598D01*
X112012155Y-104399999D01*
X112012172Y-104400000D01*
X112710000Y-104400000D01*
X112710000Y-103375277D01*
X112786306Y-103419333D01*
X112900756Y-103450000D01*
X113019244Y-103450000D01*
X113133694Y-103419333D01*
X113210000Y-103375277D01*
X113210000Y-104400000D01*
X113907828Y-104400000D01*
X113907844Y-104399999D01*
X113967372Y-104393598D01*
X113967379Y-104393596D01*
X114102086Y-104343354D01*
X114102093Y-104343350D01*
X114217187Y-104257190D01*
X114217190Y-104257187D01*
X114303350Y-104142093D01*
X114303354Y-104142086D01*
X114353596Y-104007379D01*
X114353598Y-104007372D01*
X114359999Y-103947844D01*
X114360000Y-103947827D01*
X114360000Y-103684840D01*
X114379685Y-103617801D01*
X114432489Y-103572046D01*
X114501647Y-103562102D01*
X114565203Y-103591127D01*
X114584316Y-103611952D01*
X114660586Y-103716928D01*
X114783072Y-103839414D01*
X114923212Y-103941232D01*
X115077555Y-104019873D01*
X115242299Y-104073402D01*
X115413389Y-104100500D01*
X115413390Y-104100500D01*
X115586610Y-104100500D01*
X115586611Y-104100500D01*
X115757701Y-104073402D01*
X115922445Y-104019873D01*
X116076788Y-103941232D01*
X116216928Y-103839414D01*
X116339414Y-103716928D01*
X116441232Y-103576788D01*
X116519873Y-103422445D01*
X116528292Y-103396535D01*
X116531657Y-103386180D01*
X116571095Y-103328505D01*
X116635454Y-103301308D01*
X116649587Y-103300500D01*
X120459560Y-103300500D01*
X120459562Y-103300500D01*
X120535989Y-103280021D01*
X120604511Y-103240460D01*
X120660460Y-103184511D01*
X123976165Y-99868804D01*
X124037486Y-99835321D01*
X124107178Y-99840305D01*
X124111254Y-99841909D01*
X124208165Y-99882051D01*
X124208169Y-99882051D01*
X124208170Y-99882052D01*
X124401456Y-99920500D01*
X124401459Y-99920500D01*
X124598543Y-99920500D01*
X124728582Y-99894632D01*
X124791835Y-99882051D01*
X124973914Y-99806632D01*
X125137782Y-99697139D01*
X125277139Y-99557782D01*
X125386632Y-99393914D01*
X125462051Y-99211835D01*
X125500500Y-99018541D01*
X125500500Y-98821459D01*
X125500500Y-98821456D01*
X125462052Y-98628170D01*
X125462051Y-98628169D01*
X125462051Y-98628165D01*
X125462049Y-98628160D01*
X125386635Y-98446092D01*
X125386628Y-98446079D01*
X125277139Y-98282218D01*
X125277136Y-98282214D01*
X125137785Y-98142863D01*
X125137781Y-98142860D01*
X124973920Y-98033371D01*
X124973907Y-98033364D01*
X124791839Y-97957950D01*
X124791829Y-97957947D01*
X124598543Y-97919500D01*
X124598541Y-97919500D01*
X124401459Y-97919500D01*
X124401457Y-97919500D01*
X124208170Y-97957947D01*
X124208160Y-97957950D01*
X124026092Y-98033364D01*
X124026079Y-98033371D01*
X123862218Y-98142860D01*
X123862214Y-98142863D01*
X123722863Y-98282214D01*
X123722860Y-98282218D01*
X123613371Y-98446079D01*
X123613364Y-98446092D01*
X123537950Y-98628160D01*
X123537947Y-98628170D01*
X123499500Y-98821456D01*
X123499500Y-98821459D01*
X123499500Y-99018541D01*
X123499500Y-99018543D01*
X123499499Y-99018543D01*
X123537947Y-99211829D01*
X123537950Y-99211839D01*
X123578072Y-99308702D01*
X123585541Y-99378171D01*
X123554266Y-99440650D01*
X123551192Y-99443835D01*
X120331848Y-102663181D01*
X120270525Y-102696666D01*
X120244167Y-102699500D01*
X116649587Y-102699500D01*
X116582548Y-102679815D01*
X116536793Y-102627011D01*
X116531657Y-102613820D01*
X116519873Y-102577554D01*
X116454626Y-102449500D01*
X116441232Y-102423212D01*
X116339414Y-102283072D01*
X116216928Y-102160586D01*
X116076788Y-102058768D01*
X115922445Y-101980127D01*
X115757701Y-101926598D01*
X115757699Y-101926597D01*
X115757698Y-101926597D01*
X115626271Y-101905781D01*
X115586611Y-101899500D01*
X115413389Y-101899500D01*
X115373728Y-101905781D01*
X115242302Y-101926597D01*
X115077552Y-101980128D01*
X114923211Y-102058768D01*
X114843256Y-102116859D01*
X114783072Y-102160586D01*
X114783070Y-102160588D01*
X114783069Y-102160588D01*
X114660587Y-102283070D01*
X114584318Y-102388045D01*
X114528987Y-102430711D01*
X114459374Y-102436689D01*
X114397579Y-102404083D01*
X114363222Y-102343244D01*
X114360000Y-102315159D01*
X114360000Y-102052172D01*
X114359999Y-102052155D01*
X114353598Y-101992627D01*
X114353596Y-101992620D01*
X114303354Y-101857913D01*
X114303350Y-101857906D01*
X114217190Y-101742812D01*
X114217187Y-101742809D01*
X114102093Y-101656649D01*
X114102086Y-101656645D01*
X113967379Y-101606403D01*
X113967372Y-101606401D01*
X113907844Y-101600000D01*
X113210000Y-101600000D01*
X113210000Y-102624722D01*
X113133694Y-102580667D01*
X113019244Y-102550000D01*
X112900756Y-102550000D01*
X112786306Y-102580667D01*
X112710000Y-102624722D01*
X112710000Y-101600000D01*
X112012155Y-101600000D01*
X111952627Y-101606401D01*
X111952620Y-101606403D01*
X111817913Y-101656645D01*
X111817906Y-101656649D01*
X111702812Y-101742809D01*
X111702809Y-101742812D01*
X111616649Y-101857906D01*
X111616645Y-101857913D01*
X111566403Y-101992620D01*
X111566401Y-101992627D01*
X111560000Y-102052155D01*
X57034449Y-102052155D01*
X57039990Y-101980128D01*
X57185365Y-100090247D01*
X90064500Y-100090247D01*
X90064500Y-101829752D01*
X90076131Y-101888229D01*
X90076132Y-101888230D01*
X90120447Y-101954552D01*
X90186769Y-101998867D01*
X90186770Y-101998868D01*
X90245247Y-102010499D01*
X90245250Y-102010500D01*
X90245252Y-102010500D01*
X91984750Y-102010500D01*
X91984751Y-102010499D01*
X91999568Y-102007552D01*
X92043229Y-101998868D01*
X92043229Y-101998867D01*
X92043231Y-101998867D01*
X92109552Y-101954552D01*
X92153867Y-101888231D01*
X92153867Y-101888229D01*
X92153868Y-101888229D01*
X92165499Y-101829752D01*
X92165500Y-101829750D01*
X92165500Y-100090249D01*
X92165499Y-100090247D01*
X92153868Y-100031770D01*
X92153867Y-100031769D01*
X92109552Y-99965447D01*
X92043230Y-99921132D01*
X92043229Y-99921131D01*
X91984752Y-99909500D01*
X91984748Y-99909500D01*
X90245252Y-99909500D01*
X90245247Y-99909500D01*
X90186770Y-99921131D01*
X90186769Y-99921132D01*
X90120447Y-99965447D01*
X90076132Y-100031769D01*
X90076131Y-100031770D01*
X90064500Y-100090247D01*
X57185365Y-100090247D01*
X57491249Y-96113752D01*
X57516018Y-96048422D01*
X57572175Y-96006852D01*
X57614087Y-95999268D01*
X134581303Y-95505469D01*
X138360139Y-95018040D01*
X138429144Y-95028986D01*
G37*
%TD.AperFunction*%
%TD*%
M02*
