%TF.GenerationSoftware,KiCad,Pcbnew,10.0.2*%
%TF.CreationDate,2026-07-23T11:03:36-06:00*%
%TF.ProjectId,Battle Bot Macondo,42617474-6c65-4204-926f-74204d61636f,rev?*%
%TF.SameCoordinates,Original*%
%TF.FileFunction,Soldermask,Bot*%
%TF.FilePolarity,Negative*%
%FSLAX46Y46*%
G04 Gerber Fmt 4.6, Leading zero omitted, Abs format (unit mm)*
G04 Created by KiCad (PCBNEW 10.0.2) date 2026-07-23 11:03:36*
%MOMM*%
%LPD*%
G01*
G04 APERTURE LIST*
G04 Aperture macros list*
%AMRoundRect*
0 Rectangle with rounded corners*
0 $1 Rounding radius*
0 $2 $3 $4 $5 $6 $7 $8 $9 X,Y pos of 4 corners*
0 Add a 4 corners polygon primitive as box body*
4,1,4,$2,$3,$4,$5,$6,$7,$8,$9,$2,$3,0*
0 Add four circle primitives for the rounded corners*
1,1,$1+$1,$2,$3*
1,1,$1+$1,$4,$5*
1,1,$1+$1,$6,$7*
1,1,$1+$1,$8,$9*
0 Add four rect primitives between the rounded corners*
20,1,$1+$1,$2,$3,$4,$5,0*
20,1,$1+$1,$4,$5,$6,$7,0*
20,1,$1+$1,$6,$7,$8,$9,0*
20,1,$1+$1,$8,$9,$2,$3,0*%
G04 Aperture macros list end*
%ADD10C,3.000000*%
%ADD11R,2.000000X2.000000*%
%ADD12O,2.000000X1.600000*%
%ADD13R,1.700000X1.700000*%
%ADD14C,1.700000*%
%ADD15RoundRect,0.250001X-1.149999X-1.149999X1.149999X-1.149999X1.149999X1.149999X-1.149999X1.149999X0*%
%ADD16C,2.800000*%
%ADD17R,1.800000X1.800000*%
%ADD18C,1.800000*%
%ADD19C,1.600000*%
G04 APERTURE END LIST*
D10*
%TO.C,ESP32C3*%
X97450000Y-120700000D03*
X117850000Y-120700000D03*
D11*
X96200000Y-125100000D03*
D12*
X96200000Y-127640000D03*
X96200000Y-130180000D03*
X96200000Y-132720000D03*
X96200000Y-135260000D03*
X96200000Y-137800000D03*
X96200000Y-140340000D03*
X96200000Y-142880000D03*
X119060000Y-142880000D03*
X119060000Y-140340000D03*
X119060000Y-137800000D03*
X119060000Y-135260000D03*
X119060000Y-132720000D03*
X119060000Y-130180000D03*
X119060000Y-127640000D03*
X119060000Y-125100000D03*
%TD*%
D13*
%TO.C,servo2*%
X87500000Y-159460000D03*
D14*
X87500000Y-162000000D03*
X87500000Y-164540000D03*
%TD*%
D15*
%TO.C,MotorA1*%
X63250000Y-146467500D03*
D16*
X68250000Y-146467500D03*
%TD*%
D17*
%TO.C,D1*%
X112960000Y-103000000D03*
D18*
X115500000Y-103000000D03*
%TD*%
D13*
%TO.C,Switch1*%
X91115000Y-100960000D03*
D14*
X91115000Y-103500000D03*
X91115000Y-106040000D03*
%TD*%
D15*
%TO.C,MotorB1*%
X63250000Y-134467500D03*
D16*
X68250000Y-134467500D03*
%TD*%
D19*
%TO.C,R1*%
X124500000Y-98920000D03*
X124500000Y-109080000D03*
%TD*%
D13*
%TO.C,buckconverter1*%
X130500000Y-161500000D03*
D14*
X127960000Y-161500000D03*
X125420000Y-161500000D03*
X122880000Y-161500000D03*
%TD*%
D13*
%TO.C,servomotor1*%
X95500000Y-159460000D03*
D14*
X95500000Y-162000000D03*
X95500000Y-164540000D03*
%TD*%
D13*
%TO.C,PuenteH1*%
X79500000Y-129190000D03*
D14*
X79500000Y-131730000D03*
X79500000Y-134270000D03*
X79500000Y-136810000D03*
X79500000Y-139350000D03*
X79500000Y-141890000D03*
X79500000Y-144430000D03*
X79500000Y-146970000D03*
%TD*%
M02*
